{
.appVersion = "3260";
.formatVersion = 3;
DisplayStrings = (
"THE eE UICK BROWN FOX JUMPS OVER THE LAZY DOG"
);
customParameters = (
{
name = vendorID;
value = XXXX;
},
{
name = panose;
value = (
0,
0,
0,
0,
0,
0,
0,
0,
0,
0
);
},
{
name = unicodeRanges;
value = (
0,
1,
2,
31
);
},
{
name = codePageRanges;
value = (
"1252",
"1250"
);
},
{
name = fsType;
value = (
);
},
{
name = glyphOrder;
value = (
.notdef,
.null,
controlLF,
controlCR,
space,
exclam,
quotedbl,
numbersign,
dollar,
percent,
ampersand,
quotesingle,
parenleft,
parenright,
asterisk,
plus,
comma,
hyphen,
period,
slash,
zero,
one,
two,
three,
four,
five,
six,
seven,
eight,
nine,
colon,
semicolon,
less,
equal,
greater,
question,
at,
A,
B,
C,
D,
E,
F,
G,
H,
I,
J,
K,
L,
M,
N,
O,
P,
Q,
R,
S,
T,
U,
V,
W,
X,
Y,
Z,
bracketleft,
backslash,
bracketright,
asciicircum,
underscore,
grave,
a,
b,
c,
d,
e,
f,
g,
h,
i,
j,
k,
l,
m,
n,
o,
p,
q,
r,
s,
t,
u,
v,
w,
x,
y,
z,
braceleft,
verticalbar,
braceright,
asciitilde,
nonbreakingspace,
softhyphen
);
}
);
date = "2020-05-08 13:58:02 +0000";
familyName = "Alphabit Soup";
fontMaster = (
{
customParameters = (
{
name = typoAscender;
value = 794;
},
{
name = typoDescender;
value = -200;
},
{
name = typoLineGap;
value = 0;
},
{
name = winAscent;
value = 744;
},
{
name = winDescent;
value = 180;
},
{
name = hheaAscender;
value = 794;
},
{
name = hheaDescender;
value = -200;
},
{
name = strikeoutPosition;
value = 258;
},
{
name = strikeoutSize;
value = 49;
}
);
id = m01;
metricValues = (
{
pos = 794;
},
{
pos = 698;
},
{
pos = 502;
},
{
},
{
pos = -200;
},
{
}
);
name = Regular;
}
);
glyphs = (
{
glyphname = exclam;
lastChange = "2024-02-24 20:30:53 +0000";
layers = (
{
layerId = m01;
shapes = (
{
closed = 1;
nodes = (
(275,223,o),
(282,234,o),
(284,249,cs),
(320,581,l),
(319,608,o),
(321,636,o),
(300,656,cs),
(234,719,o),
(132,694,o),
(103,609,cs),
(67,504,o),
(69,397,o),
(94,290,cs),
(111,219,o),
(195,183,o),
(261,216,cs)
);
},
{
closed = 1;
nodes = (
(206,-30,o),
(249,-28,o),
(291,-13,cs),
(321,-2,o),
(346,14,o),
(339,50,cs),
(331,88,o),
(326,129,o),
(274,134,cs),
(215,138,o),
(158,134,o),
(101,119,cs),
(79,113,o),
(67,100,o),
(60,79,cs),
(37,2,o),
(55,-24,o),
(135,-30,cs),
(144,-31,o),
(153,-31,o),
(163,-32,c)
);
}
);
width = 390;
}
);
note = exclam;
unicode = 33;
},
{
glyphname = quotedbl;
kernLeft = quotedbl;
layers = (
{
layerId = m01;
shapes = (
{
closed = 1;
nodes = (
(47.04,654.27,o),
(49.23,625.12,o),
(48.22,594.77,cs),
(47.04,558.97,o),
(41.79,521.72,o),
(67.91,492.53,cs),
(78.25,480.98,o),
(111.26,410.03,o),
(120.29,385.87,cs),
(132.22,353.93,o),
(163.53,338.23,o),
(196.4,356.05,cs),
(226.28,372.25,o),
(274.12,463.79,o),
(281.01,500.79,cs),
(287.45,535.36,o),
(279.46,571.69,o),
(267.35,604.4,cs),
(259.81,624.74,o),
(254.07,647.63,o),
(235.16,661.37,cs),
(216.77,674.73,o),
(103.09,670.53,o),
(78.73,663.46,cs)
);
},
{
closed = 1;
nodes = (
(409.53,654.26,o),
(411.72,625.11,o),
(410.71,594.76,cs),
(409.53,558.96,o),
(404.28,521.71,o),
(430.4,492.52,cs),
(440.74,480.97,o),
(473.75,410.02,o),
(482.78,385.86,cs),
(494.71,353.92,o),
(526.02,338.22,o),
(558.89,356.04,cs),
(588.77,372.24,o),
(636.61,463.78,o),
(643.5,500.78,cs),
(649.94,535.34,o),
(641.95,571.68,o),
(629.84,604.39,cs),
(622.3,624.73,o),
(616.56,647.62,o),
(597.65,661.36,cs),
(579.26,674.72,o),
(465.57,670.52,o),
(441.22,663.45,cs)
);
}
);
width = 694;
}
);
note = quotedbl;
unicode = (34,8220,8221);
},
{
glyphname = numbersign;
layers = (
{
layerId = m01;
shapes = (
{
closed = 1;
nodes = (
(643.15,299.69,o),
(603.71,264.9,o),
(591.73,311.67,cs),
(579.74,358.48,o),
(630.1,353.97,o),
(657.27,364.5,cs),
(708.68,384.43,o),
(728.65,416.5,o),
(705.53,457.03,cs),
(684.99,493.04,o),
(645.32,485.46,o),
(612.77,483.07,cs),
(585.71,481.09,o),
(578.76,488.32,o),
(578.89,513.43,cs),
(579.13,558.64,o),
(579.54,604.08,o),
(555.47,645.44,cs),
(539.84,672.3,o),
(515.58,684.99,o),
(486.82,685,cs),
(459.67,685.01,o),
(443.09,666.75,o),
(430.72,642.37,cs),
(414.59,610.59,o),
(414.94,576.32,o),
(409.45,542.81,cs),
(408.1,534.57,o),
(409.51,522.15,o),
(396.01,522.34,cs),
(383.83,522.51,o),
(375.81,528.67,o),
(373.26,542.05,cs),
(369.28,562.87,o),
(364.79,583.69,o),
(358.72,603.97,cs),
(352.25,625.6,o),
(340.95,644.31,o),
(320.47,656.42,cs),
(257.53,693.64,o),
(203.66,661.99,o),
(194.59,571.32,cs),
(189.68,522.22,o),
(172.3,504.25,o),
(126.76,498.05,cs),
(78.38,491.46,o),
(54.28,456.15,o),
(47.09,410.45,cs),
(39.82,364.29,o),
(69.72,339.53,o),
(105.15,319.06,cs),
(113.62,314.17,o),
(126.9,307.69,o),
(127.4,301.13,cs),
(128.25,289.98,o),
(112.71,290.24,o),
(104.4,285.31,cs),
(68.84,264.22,o),
(48.22,234.67,o),
(52.47,191.97,cs),
(55.74,159.13,o),
(76.23,134.4,o),
(107.31,135.82,cs),
(183.37,139.31,o),
(214.06,98.27,o),
(224.77,31.51,cs),
(225.06,29.72,o),
(226.01,28.04,o),
(226.69,26.32,cs),
(246.06,-22.38,o),
(275.71,-35.51,o),
(325.29,-18.88,cs),
(350.46,-10.44,o),
(365.7,6.25,o),
(372.61,31.05,cs),
(377.56,48.84,o),
(381.86,66.82,o),
(385.83,84.85,cs),
(391.08,108.69,o),
(403.59,123.55,o),
(429.88,120.4,cs),
(455.95,117.27,o),
(450.6,95.5,o),
(451.46,79.38,cs),
(455.75,-0.76,o),
(503.87,-37.21,o),
(569.77,-9.33,cs),
(607.11,6.46,o),
(613.9,40.45,o),
(618.83,74.69,cs),
(624.57,114.6,o),
(630.82,149.33,o),
(682.71,157.08,cs),
(719.67,162.6,o),
(731.76,195.51,o),
(730.75,225.53,cs),
(730.88,294.17,o),
(717.62,307.03,o),
(669.17,302.26,cs)
);
},
{
closed = 1;
nodes = (
(463.64,275.18,o),
(439.22,254.04,o),
(398.05,252.03,cs),
(354.14,249.89,o),
(319.43,275.92,o),
(318.38,310.12,cs),
(316.88,358.95,o),
(345.34,386.6,o),
(398.39,387.86,cs),
(442.4,388.9,o),
(463.79,366.91,o),
(463.71,317.9,cs)
);
}
);
width = 775;
}
);
note = numbersign;
unicode = 35;
},
{
glyphname = dollar;
lastChange = "2024-02-24 20:36:29 +0000";
layers = (
{
layerId = m01;
shapes = (
{
closed = 1;
nodes = (
(206,8,o),
(215,5,o),
(226,-14,cs),
(245,-45,o),
(270,-79,o),
(314,-69,cs),
(361,-58,o),
(382,-24,o),
(378,23,cs),
(376,51,o),
(386,71,o),
(407,92,cs),
(498,179,o),
(502,256,o),
(424,328,cs),
(396,353,o),
(365,369,o),
(330,381,cs),
(313,387,o),
(295,394,o),
(279,403,cs),
(271,408,o),
(267,419,o),
(262,427,c),
(269,431,o),
(277,437,o),
(285,440,cs),
(313,449,o),
(341,456,o),
(368,467,cs),
(418,487,o),
(460,518,o),
(447,578,cs),
(434,637,o),
(385,652,o),
(330,649,cs),
(318,648,o),
(305,641,o),
(297,658,cs),
(275,706,o),
(240,740,o),
(185,727,cs),
(126,712,o),
(119,658,o),
(114,606,cs),
(113,594,o),
(112,583,o),
(103,572,cs),
(-1,451,o),
(54,349,o),
(196,275,cs),
(217,264,o),
(258,263,o),
(255,237,cs),
(253,211,o),
(212,211,o),
(188,204,cs),
(138,190,o),
(69,167,o),
(70,109,cs),
(70,39,o),
(108,5,o),
(187,7,cs)
);
}
);
width = 526;
}
);
note = dollar;
unicode = 36;
},
{
glyphname = percent;
lastChange = "2024-02-24 20:36:26 +0000";
layers = (
{
layerId = m01;
shapes = (
{
closed = 1;
nodes = (
(148,653,o),
(135,648,o),
(111,636,cs),
(68,614,o),
(73,569,o),
(74,525,cs),
(74,497,o),
(77,476,o),
(100,459,cs),
(145,425,o),
(163,423,o),
(217,440,cs),
(241,448,o),
(250,460,o),
(258,482,cs),
(275,527,o),
(292,548,o),
(266,577,cs),
(237,608,o),
(212,617,o),
(173,645,c)
);
},
{
closed = 1;
nodes = (
(553,234,o),
(540,229,o),
(516,217,cs),
(473,195,o),
(478,150,o),
(479,106,cs),
(479,78,o),
(482,57,o),
(505,40,cs),
(550,6,o),
(568,4,o),
(622,21,cs),
(646,29,o),
(655,41,o),
(663,63,cs),
(680,108,o),
(697,129,o),
(671,158,cs),
(642,189,o),
(617,198,o),
(578,226,c)
);
},
{
closed = 1;
nodes = (
(158,288,o),
(63,215,o),
(48,123,cs),
(41,84,o),
(70,46,o),
(109,44,cs),
(189,40,o),
(281,114,o),
(339,162,cs),
(399,213,o),
(449,263,o),
(498,322,cs),
(536,367,o),
(584,411,o),
(604,467,cs),
(616,500,o),
(628,584,o),
(610,614,cs),
(576,670,o),
(523,622,o),
(494,591,cs),
(410,504,o),
(323,411,o),
(226,339,cs)
);
}
);
width = 721;
}
);
note = percent;
unicode = 37;
},
{
glyphname = ampersand;
layers = (
{
layerId = m01;
shapes = (
{
closed = 1;
nodes = (
(192.99,-10.39,o),
(236.83,-6.24,o),
(279.96,8.01,cs),
(314.65,19.47,o),
(336.77,64.87,o),
(365.23,63.59,cs),
(395.78,62.21,o),
(423.95,25.51,o),
(459.48,16.19,cs),
(488.55,8.57,o),
(517.86,7.02,o),
(536.63,36.06,cs),
(555.94,65.95,o),
(551.45,96.3,o),
(529.41,123.3,cs),
(489.11,172.65,o),
(449.35,222.55,o),
(406.76,269.89,cs),
(383.58,295.66,o),
(394.34,307.27,o),
(418.83,318.03,cs),
(498.14,352.88,o),
(551.63,461.35,o),
(524.58,532.7,cs),
(490.73,622,o),
(364.8,688.98,o),
(282.13,657.08,cs),
(146.22,604.64,o),
(121.23,494.08,o),
(164.6,372.7,cs),
(172.02,351.93,o),
(175.24,344.71,o),
(152.49,331.96,cs),
(81.59,292.23,o),
(43.33,229.69,o),
(39.04,169.23,c),
(37.6,68.59,o),
(76.11,15.67,o),
(148.82,-0.54,cs)
);
},
{
closed = 1;
nodes = (
(348.56,518.24,o),
(374.23,499.18,o),
(374.88,457.9,cs),
(375.41,424.42,o),
(344.31,389.5,o),
(324.22,396.7,cs),
(288.41,409.54,o),
(286.7,456.61,o),
(278.15,492.34,c),
(275.37,516.78,o),
(291.46,518.05,o),
(308.15,518.11,cs)
);
},
{
closed = 1;
nodes = (
(218.76,138.87,o),
(192.04,162.62,o),
(191.04,193.59,cs),
(189.94,227.68,o),
(229.87,217.69,o),
(249.82,221.39,cs),
(267.9,224.75,o),
(288.1,205.51,o),
(295.82,187.63,c),
(291.61,156.86,o),
(280.28,135.62,o),
(252.56,137.09,cs)
);
}
);
width = 596;
}
);
note = ampersand;
unicode = 38;
},
{
glyphname = quotesingle;
kernLeft = quotedbl;
layers = (
{
layerId = m01;
shapes = (
{
closed = 1;
nodes = (
(47.04,659.28,o),
(49.23,630.13,o),
(48.22,599.78,cs),
(47.04,563.98,o),
(41.79,526.73,o),
(67.91,497.54,cs),
(78.25,485.99,o),
(111.26,415.04,o),
(120.29,390.88,cs),
(132.22,358.94,o),
(163.53,343.24,o),
(196.4,361.06,cs),
(226.28,377.26,o),
(274.12,468.8,o),
(281.01,505.8,cs),
(287.45,540.36,o),
(279.46,576.7,o),
(267.35,609.41,cs),
(259.81,629.75,o),
(254.07,652.64,o),
(235.16,666.38,cs),
(216.77,679.74,o),
(103.09,675.54,o),
(78.73,668.47,cs)
);
}
);
width = 332;
}
);
note = quotesingle;
unicode = (39,8216,8217);
},
{
glyphname = parenleft;
lastChange = "2024-02-24 20:36:22 +0000";
layers = (
{
layerId = m01;
shapes = (
{
closed = 1;
nodes = (
(276,638,o),
(230,625,o),
(203,606,cs),
(171,583,o),
(136,546,o),
(115,513,cs),
(56,423,o),
(38,279,o),
(60,177,cs),
(67,141,o),
(70,111,o),
(94,83,cs),
(115,60,o),
(146,46,o),
(173,32,cs),
(207,14,o),
(268,-11,o),
(302,24,cs),
(325,46,o),
(334,98,o),
(325,127,cs),
(313,165,o),
(275,179,o),
(259,212,cs),
(237,257,o),
(242,347,o),
(255,396,cs),
(266,439,o),
(306,452,o),
(327,491,cs),
(340,515,o),
(373,662,o),
(296,652,c)
);
}
);
width = 394;
}
);
note = parenleft;
unicode = 40;
},
{
glyphname = parenright;
lastChange = "2024-02-24 20:36:20 +0000";
layers = (
{
layerId = m01;
shapes = (
{
closed = 1;
nodes = (
(87,452,o),
(127,439,o),
(139,396,cs),
(151,347,o),
(156,257,o),
(135,212,cs),
(118,179,o),
(81,165,o),
(69,127,cs),
(60,98,o),
(69,46,o),
(91,24,cs),
(126,-11,o),
(186,14,o),
(221,32,cs),
(247,46,o),
(279,60,o),
(299,83,cs),
(323,111,o),
(326,141,o),
(334,177,cs),
(355,279,o),
(337,423,o),
(279,513,cs),
(257,546,o),
(222,583,o),
(190,606,cs),
(164,625,o),
(117,638,o),
(97,652,c),
(20,662,o),
(53,515,o),
(67,491,cs)
);
}
);
width = 394;
}
);
note = parenright;
unicode = 41;
},
{
glyphname = asterisk;
layers = (
{
layerId = m01;
shapes = (
{
closed = 1;
nodes = (
(538.23,351.2,o),
(557.19,365.59,o),
(577.57,378.53,cs),
(596.88,390.79,o),
(623.4,403.3,o),
(638.97,420.12,cs),
(662.58,445.63,o),
(658.38,475.54,o),
(643.46,497.17,cs),
(590.57,573.86,o),
(510.51,524.25,o),
(430.18,478.63,c),
(426.67,502.12,o),
(423.79,525.75,o),
(422.86,549.87,cs),
(421.98,572.73,o),
(424.53,601.94,o),
(417.83,623.86,cs),
(407.67,657.1,o),
(379.71,668.53,o),
(353.51,666.53,cs),
(266.09,659.85,o),
(263.22,576.07,o),
(262.33,489.22,c),
(246.83,496.82,o),
(231.13,504.11,o),
(215.19,510.97,cs),
(154.07,537.27,o),
(105.36,554.48,o),
(66.61,508.41,cs),
(37.79,474.14,o),
(47.33,436.84,o),
(95.55,383.52,c),
(121.53,367.98,o),
(145.82,351.12,o),
(169.72,334.01,c),
(154.94,324.2,o),
(140.35,314.03,o),
(126,303.42,cs),
(72.5,263.84,o),
(33.12,230.42,o),
(53.43,173.74,cs),
(68.54,131.59,o),
(105.56,121.05,o),
(175.91,135.88,c),
(202.41,150.5,o),
(229.21,163.01,o),
(256.03,175.05,c),
(257.07,157.34,o),
(258.5,139.62,o),
(260.45,121.88,cs),
(267.72,55.73,o),
(276.78,4.87,o),
(335.97,-6.1,cs),
(380,-14.27,o),
(407.74,12.43,o),
(430.34,80.68,c),
(431.19,117.46,o),
(434.98,153.06,o),
(438.87,188.51,c),
(462.03,179.65,o),
(485,170.18,o),
(507.39,158.6,cs),
(527.71,148.09,o),
(551.86,131.46,o),
(574.23,126.48,cs),
(608.16,118.92,o),
(631.89,137.61,o),
(643.07,161.38,cs),
(682.71,245.69,o),
(599.54,289.89,o),
(519.69,336.34,c)
);
}
);
width = 704;
}
);
note = asterisk;
unicode = 42;
},
{
glyphname = plus;
lastChange = "2024-02-24 20:36:15 +0000";
layers = (
{
layerId = m01;
shapes = (
{
closed = 1;
nodes = (
(734,410,o),
(691,403,o),
(653,403,cs),
(610,403,o),
(568,406,o),
(526,409,c),
(523,459,o),
(518,510,o),
(518,562,cs),
(518,601,o),
(525,644,o),
(485,661,cs),
(432,685,o),
(352,658,o),
(332,603,cs),
(310,542,o),
(309,474,o),
(312,406,c),
(308,405,o),
(304,405,o),
(300,404,cs),
(275,399,o),
(250,397,o),
(225,398,cs),
(177,401,o),
(127,388,o),
(104,361,cs),
(78,330,o),
(68,257,o),
(100,228,cs),
(114,216,o),
(149,223,o),
(164,221,cs),
(199,217,o),
(233,205,o),
(268,202,cs),
(284,201,o),
(300,201,o),
(316,201,c),
(316,193,o),
(317,185,o),
(317,178,cs),
(320,143,o),
(332,109,o),
(336,74,cs),
(338,58,o),
(331,23,o),
(343,10,cs),
(372,-22,o),
(445,-12,o),
(476,13,cs),
(504,37,o),
(517,91,o),
(513,140,cs),
(512,159,o),
(513,178,o),
(516,196,c),
(577,195,o),
(638,197,o),
(694,217,cs),
(748,237,o),
(775,317,o),
(751,370,cs)
);
}
);
width = 840;
}
);
note = plus;
unicode = 43;
},
{
glyphname = comma;
lastChange = "2024-02-24 20:36:13 +0000";
layers = (
{
layerId = m01;
shapes = (
{
closed = 1;
nodes = (
(137,251,o),
(66,225,o),
(53,190,cs),
(32,138,o),
(56,99,o),
(95,67,cs),
(129,38,o),
(123,7,o),
(105,-28,cs),
(86,-64,o),
(98,-92,o),
(138,-104,cs),
(174,-115,o),
(204,-104,o),
(229,-79,cs),
(277,-32,o),
(300,26,o),
(301,73,cs),
(301,182,o),
(264,231,o),
(186,243,cs)
);
}
);
width = 350;
}
);
note = comma;
unicode = 44;
},
{
glyphname = hyphen;
lastChange = "2024-02-24 20:36:11 +0000";
layers = (
{
layerId = m01;
shapes = (
{
closed = 1;
nodes = (
(242,347,o),
(197,349,o),
(152,346,cs),
(73,342,o),
(35,289,o),
(49,209,cs),
(56,164,o),
(79,139,o),
(125,139,cs),
(196,139,o),
(267,138,o),
(338,140,cs),
(364,140,o),
(388,150,o),
(412,162,cs),
(456,184,o),
(479,217,o),
(469,266,cs),
(454,336,o),
(446,343,o),
(373,346,cs),
(345,348,o),
(287,348,o),
(287,347,c)
);
}
);
width = 517;
}
);
note = hyphen;
unicode = 45;
},
{
glyphname = period;
layers = (
{
layerId = m01;
shapes = (
{
closed = 1;
nodes = (
(45.08,66.45,o),
(78.14,29.99,o),
(121.95,29.78,cs),
(218.15,29.34,o),
(256.46,57.15,o),
(256.65,127.56,cs),
(256.82,192.53,o),
(229.18,217.63,o),
(156.81,218.19,cs),
(79.63,218.79,o),
(47.52,188.46,o),
(46.02,113.52,cs)
);
}
);
width = 303;
}
);
note = period;
unicode = 46;
},
{
glyphname = slash;
lastChange = "2024-02-24 20:36:08 +0000";
layers = (
{
layerId = m01;
shapes = (
{
closed = 1;
nodes = (
(352,588,o),
(334,490,o),
(316,472,cs),
(232,386,o),
(193,231,o),
(110,203,cs),
(73,192,o),
(72,113,o),
(96,77,cs),
(127,27,o),
(209,6,o),
(255,40,cs),
(280,59,o),
(289,117,o),
(309,142,cs),
(351,195,o),
(376,234,o),
(410,289,cs),
(433,326,o),
(460,366,o),
(480,404,cs),
(497,435,o),
(545,414,o),
(561,445,cs),
(569,459,o),
(575,524,o),
(573,542,cs),
(567,585,o),
(501,625,o),
(467,644,cs),
(433,662,o),
(389,651,o),
(365,610,cs)
);
}
);
width = 654;
}
);
note = slash;
unicode = 47;
},
{
glyphname = zero;
lastChange = "2024-02-24 20:36:05 +0000";
layers = (
{
layerId = m01;
shapes = (
{
closed = 1;
nodes = (
(612,680,o),
(505,745,o),
(378,715,cs),
(187,669,o),
(63,532,o),
(52,312,cs),
(50,257,o),
(40,198,o),
(73,148,cs),
(108,93,o),
(154,47,o),
(207,8,cs),
(215,2,o),
(224,-4,o),
(233,-5,cs),
(328,-15,o),
(423,-22,o),
(517,-2,cs),
(547,4,o),
(579,3,o),
(602,28,cs),
(672,103,o),
(725,186,o),
(716,286,c),
(718,387,o),
(697,474,o),
(662,559,cs)
);
},
{
closed = 1;
nodes = (
(365,538,o),
(404,556,o),
(446,549,cs),
(560,531,o),
(588,495,o),
(583,380,cs),
(578,246,o),
(562,223,o),
(431,185,cs),
(383,171,o),
(334,140,o),
(279,168,cs),
(262,177,o),
(252,188,o),
(248,206,cs),
(234,261,o),
(233,316,o),
(228,363,cs),
(222,468,o),
(235,490,o),
(326,524,cs)
);
},
{
closed = 1;
nodes = (
(341,465,o),
(296,417,o),
(297,326,cs),
(298,271,o),
(320,242,o),
(361,243,cs),
(428,244,o),
(507,309,o),
(506,363,cs),
(504,434,o),
(480,469,o),
(432,468,cs)
);
}
);
width = 769;
}
);
note = zero;
unicode = 48;
},
{
glyphname = one;
lastChange = "2024-02-24 20:36:03 +0000";
layers = (
{
layerId = m01;
shapes = (
{
closed = 1;
nodes = (
(316,505,o),
(319,561,o),
(315,617,cs),
(313,653,o),
(316,701,o),
(261,700,cs),
(213,700,o),
(164,700,o),
(119,680,cs),
(108,675,o),
(97,670,o),
(91,658,cs),
(73,616,o),
(57,573,o),
(50,527,cs),
(45,494,o),
(59,475,o),
(91,474,cs),
(131,473,o),
(141,449,o),
(141,417,cs),
(141,359,o),
(140,301,o),
(139,242,cs),
(139,234,o),
(139,225,o),
(131,220,cs),
(50,178,o),
(72,104,o),
(74,37,cs),
(75,23,o),
(84,15,o),
(98,14,cs),
(177,9,o),
(256,1,o),
(336,14,cs),
(373,20,o),
(384,45,o),
(382,75,cs),
(379,123,o),
(411,177,o),
(358,216,cs),
(355,218,l),
(320,223,o),
(313,249,o),
(313,279,cs),
(313,336,o),
(313,392,o),
(313,448,c),
(316,448,l)
);
}
);
width = 434;
}
);
note = one;
unicode = 49;
},
{
glyphname = two;
lastChange = "2024-02-24 20:36:01 +0000";
layers = (
{
layerId = m01;
shapes = (
{
closed = 1;
nodes = (
(588,35,o),
(648,80,o),
(659,162,cs),
(665,209,o),
(650,250,o),
(608,273,cs),
(566,294,o),
(531,271,o),
(502,240,cs),
(487,224,o),
(472,208,o),
(456,192,cs),
(428,163,o),
(394,163,o),
(358,175,cs),
(342,181,o),
(337,191,o),
(348,207,cs),
(372,243,o),
(397,278,o),
(432,305,cs),
(475,338,o),
(515,374,o),
(540,423,cs),
(585,508,o),
(574,606,o),
(511,666,cs),
(435,739,o),
(344,750,o),
(255,694,cs),
(210,667,o),
(167,636,o),
(122,608,cs),
(80,583,o),
(61,543,o),
(50,498,cs),
(40,452,o),
(64,421,o),
(129,390,cs),
(165,373,o),
(187,394,o),
(206,419,cs),
(231,451,o),
(262,472,o),
(303,478,cs),
(317,480,o),
(331,478,o),
(340,466,cs),
(351,453,o),
(347,439,o),
(341,427,cs),
(323,393,o),
(297,366,o),
(263,351,cs),
(174,312,o),
(119,244,o),
(80,159,cs),
(54,104,o),
(70,49,o),
(120,17,cs),
(185,-25,o),
(260,-13,o),
(313,-21,c),
(396,-26,o),
(462,-16,o),
(521,8,cs)
);
}
);
width = 697;
}
);
note = two;
unicode = 50;
},
{
glyphname = three;
lastChange = "2024-02-24 20:35:59 +0000";
layers = (
{
layerId = m01;
shapes = (
{
closed = 1;
nodes = (
(83,669,o),
(62,637,o),
(68,588,cs),
(70,571,o),
(73,555,o),
(76,538,cs),
(79,519,o),
(81,495,o),
(105,494,cs),
(137,493,o),
(179,486,o),
(199,512,cs),
(229,552,o),
(263,555,o),
(305,550,cs),
(329,547,o),
(339,531,o),
(346,511,cs),
(352,492,o),
(342,480,o),
(330,467,cs),
(308,442,o),
(279,428,o),
(248,417,cs),
(231,411,o),
(218,402,o),
(213,382,cs),
(200,325,o),
(223,297,o),
(295,289,cs),
(337,285,o),
(371,268,o),
(365,222,cs),
(359,176,o),
(320,172,o),
(283,177,cs),
(234,185,o),
(184,192,o),
(137,207,cs),
(90,222,o),
(74,193,o),
(60,162,cs),
(43,127,o),
(35,93,o),
(75,64,cs),
(123,30,o),
(177,19,o),
(234,12,cs),
(340,0,o),
(443,5,o),
(537,62,cs),
(617,111,o),
(642,219,o),
(589,278,cs),
(566,304,o),
(531,312,o),
(503,332,cs),
(476,351,o),
(467,371,o),
(488,401,cs),
(508,431,o),
(526,462,o),
(544,494,cs),
(585,564,o),
(536,673,o),
(457,692,cs),
(410,703,o),
(363,702,o),
(323,699,c),
(254,699,o),
(192,700,o),
(132,683,cs)
);
}
);
width = 661;
}
);
note = three;
unicode = 51;
},
{
glyphname = four;
lastChange = "2024-02-24 20:35:57 +0000";
layers = (
{
layerId = m01;
shapes = (
{
closed = 1;
nodes = (
(358,454,o),
(351,449,o),
(297,449,cs),
(239,449,o),
(261,485,o),
(264,513,cs),
(273,591,o),
(240,624,o),
(161,615,cs),
(137,612,o),
(114,607,o),
(91,601,cs),
(57,592,o),
(41,566,o),
(37,534,cs),
(34,505,o),
(23,469,o),
(56,453,cs),
(85,439,o),
(82,422,o),
(81,398,cs),
(76,326,o),
(95,301,o),
(168,291,cs),
(225,283,o),
(282,295,o),
(339,298,cs),
(351,298,o),
(368,303,o),
(368,286,cs),
(367,246,o),
(383,200,o),
(330,176,cs),
(291,157,o),
(277,123,o),
(286,81,cs),
(293,44,o),
(322,28,o),
(354,20,cs),
(401,9,o),
(448,12,o),
(494,23,cs),
(544,36,o),
(578,104,o),
(543,141,cs),
(504,183,o),
(521,224,o),
(527,267,cs),
(532,294,o),
(543,311,o),
(576,310,cs),
(606,308,o),
(636,317,o),
(640,353,cs),
(644,389,o),
(638,434,o),
(599,441,cs),
(536,452,o),
(546,489,o),
(553,530,cs),
(555,548,o),
(557,565,o),
(558,583,cs),
(567,675,o),
(555,685,o),
(464,693,cs),
(370,701,o),
(355,650,o),
(355,577,c),
(356,567,o),
(357,557,o),
(357,550,cs),
(357,513,ls)
);
}
);
width = 679;
}
);
note = four;
unicode = 52;
},
{
glyphname = five;
lastChange = "2024-02-24 20:35:54 +0000";
layers = (
{
layerId = m01;
shapes = (
{
closed = 1;
nodes = (
(125,700,o),
(94,674,o),
(62,544,cs),
(58,527,o),
(55,510,o),
(54,492,cs),
(43,389,o),
(87,339,o),
(191,343,cs),
(248,346,o),
(297,323,o),
(345,297,cs),
(367,286,o),
(367,231,o),
(346,220,cs),
(308,201,o),
(230,213,o),
(200,244,cs),
(192,252,o),
(182,256,o),
(171,257,cs),
(132,262,o),
(100,252,o),
(87,211,cs),
(64,145,o),
(78,66,o),
(119,46,cs),
(229,-8,o),
(345,-14,o),
(461,24,cs),
(527,46,o),
(578,122,o),
(579,186,cs),
(580,311,o),
(508,404,o),
(385,431,cs),
(341,441,o),
(303,465,o),
(261,477,cs),
(248,481,o),
(244,489,o),
(244,502,c),
(246,517,o),
(241,536,o),
(258,541,cs),
(299,554,o),
(341,538,o),
(382,538,cs),
(402,538,o),
(400,511,o),
(408,496,cs),
(416,480,o),
(428,470,o),
(446,468,cs),
(476,463,o),
(505,463,o),
(535,467,cs),
(557,470,o),
(571,481,o),
(574,503,cs),
(581,546,o),
(588,589,o),
(592,632,cs),
(594,662,o),
(581,683,o),
(546,691,cs),
(482,705,o),
(416,709,o),
(351,707,cs),
(320,707,o),
(290,708,o),
(259,707,cs)
);
}
);
width = 645;
}
);
note = five;
unicode = 53;
},
{
glyphname = six;
layers = (
{
layerId = m01;
shapes = (
{
closed = 1;
nodes = (
(413.11,406.39,o),
(386.33,406.51,o),
(359.54,406.36,cs),
(334.07,406.22,o),
(325.24,424.93,o),
(331.25,442.76,cs),
(345.75,485.8,o),
(372.32,521.5,o),
(415.35,541.08,cs),
(470.5,566.17,o),
(491.05,605.11,o),
(479.97,663.25,cs),
(477.37,676.89,o),
(472,685.13,o),
(458.23,687.81,cs),
(378.12,703.37,o),
(300.32,694.92,o),
(224.73,665.01,cs),
(193.23,652.55,o),
(183.53,623.91,o),
(191.65,596.78,cs),
(201.77,562.99,o),
(188.56,541.99,o),
(168.6,520.06,cs),
(79.25,421.89,o),
(41.99,305.09,o),
(46.35,173.97,cs),
(48.64,105.26,o),
(108.18,37.14,o),
(175.3,22.46,cs),
(292.08,-3.08,o),
(405.2,22.56,o),
(517.2,49.75,cs),
(567.12,61.87,o),
(601.46,100.34,o),
(615.12,151.1,cs),
(629.21,203.43,o),
(630.65,257.64,o),
(618.73,310.43,cs),
(602.55,382.1,o),
(565.42,408.98,o),
(492.58,408.17,cs),
(475.03,407.98,o),
(457.46,408.14,o),
(439.91,408.14,c),
(439.91,407.56,o),
(439.91,406.98,o),
(439.9,406.4,c)
);
},
{
closed = 1;
nodes = (
(246.72,266.38,o),
(288.6,291.02,o),
(354.9,285.69,cs),
(380.55,283.63,o),
(402.97,276.68,o),
(400.27,243.21,cs),
(396.25,193.35,o),
(363.59,168.24,o),
(293.67,173.76,cs),
(276.29,174.69,o),
(240.98,172.63,o),
(243.89,220.16,cs)
);
}
);
width = 670;
}
);
note = six;
unicode = 54;
},
{
glyphname = seven;
layers = (
{
layerId = m01;
shapes = (
{
closed = 1;
nodes = (
(324.12,697.67,o),
(289.87,699.07,o),
(255.79,697.28,cs),
(220.79,695.45,o),
(185.98,690.12,o),
(151.03,686.99,cs),
(72.11,679.92,o),
(48.9,656.21,o),
(44.47,576.15,cs),
(43.6,560.51,o),
(44.05,544.71,o),
(45.08,529.06,cs),
(49.36,464.25,o),
(69.42,451.77,o),
(133.79,454.56,cs),
(171.25,456.18,o),
(179.06,494.91,o),
(208.54,500.14,cs),
(253.01,508.04,o),
(298.07,512.78,o),
(342.98,517.97,cs),
(354.14,519.26,o),
(365.82,516.57,o),
(370.63,504.09,cs),
(375.25,492.12,o),
(369.03,482.39,o),
(361.53,473.91,cs),
(342.46,452.36,o),
(321.16,433.38,o),
(295.72,419.49,cs),
(197.6,365.93,o),
(135.94,289.26,o),
(119.81,173.94,cs),
(99.78,30.71,o),
(108.77,0.48,o),
(273.22,7.69,cs),
(354.64,11.26,o),
(385.49,49.59,o),
(374.24,128.83,cs),
(359.94,229.56,o),
(382.16,311.44,o),
(473.48,366.69,cs),
(567.55,423.59,o),
(585.35,515.1,o),
(581.95,614.28,cs),
(580.29,662.48,o),
(548.29,690.83,o),
(499.52,693.66,cs),
(452.49,696.38,o),
(405.41,698.38,o),
(358.36,700.69,c),
(358.34,699.69,o),
(358.32,698.69,o),
(358.3,697.68,c)
);
}
);
width = 618;
}
);
note = seven;
unicode = 55;
},
{
glyphname = eight;
layers = (
{
layerId = m01;
shapes = (
{
closed = 1;
nodes = (
(683.45,86.56,o),
(717.11,194.12,o),
(666.22,271.01,cs),
(642.1,307.45,o),
(613.04,339.44,o),
(575.62,363.4,cs),
(537.83,387.59,o),
(534.76,411.82,o),
(564.4,446.81,cs),
(572.68,456.58,o),
(583.36,464.32,o),
(593.07,472.86,cs),
(635.3,510.01,o),
(628.44,556.57,o),
(618.42,603.86,cs),
(610.03,643.46,o),
(596.68,681.81,o),
(552.29,691.11,cs),
(455.42,711.4,o),
(356.82,723.95,o),
(258.11,714.28,cs),
(158.28,704.49,o),
(109.67,634.43,o),
(104.1,508.05,cs),
(102.48,471.39,o),
(110.5,441.88,o),
(143.84,420.04,cs),
(170.55,402.55,o),
(168.11,370.57,o),
(146.4,356.76,cs),
(79.21,314.03,o),
(61.36,246.96,o),
(49.82,177.3,cs),
(40.44,120.7,o),
(53.12,72.32,o),
(108.88,37.71,cs),
(180.85,-6.95,o),
(257.8,-13.13,o),
(340.79,-9.01,c),
(428.35,-14.35,o),
(514.97,-1.82,o),
(596.12,40.75,cs)
);
},
{
closed = 1;
nodes = (
(228.92,251.41,o),
(254.52,269.1,o),
(284.41,280.75,cs),
(321.68,295.28,o),
(360.4,302.38,o),
(400.84,298.51,cs),
(436.81,295.07,o),
(452.91,273,o),
(455.6,240.1,cs),
(458.09,209.72,o),
(432.79,201.23,o),
(411.2,195.7,cs),
(375.73,186.61,o),
(339.1,182.05,o),
(302.96,175.58,c),
(273.82,178.76,o),
(241.73,174.18,o),
(235.16,213.81,cs)
);
},
{
closed = 1;
nodes = (
(258.8,487.37,o),
(256.33,524.05,o),
(290.4,548.54,cs),
(342.05,585.67,o),
(397.48,574.93,o),
(452.25,558.5,cs),
(469.17,553.42,o),
(479.48,536.9,o),
(477.53,519.22,cs),
(475.35,499.49,o),
(471.03,479.61,o),
(446.74,471.29,cs),
(419.21,461.86,o),
(391.49,456.69,o),
(366.22,456.93,c),
(339.23,454.49,o),
(316.43,455.89,o),
(295.24,467.47,cs)
);
}
);
width = 735;
}
);
note = eight;
unicode = 56;
},
{
glyphname = nine;
lastChange = "2024-02-24 20:35:49 +0000";
layers = (
{
layerId = m01;
shapes = (
{
closed = 1;
nodes = (
(670,375,o),
(657,473,o),
(620,565,cs),
(589,642,o),
(535,697,o),
(445,702,cs),
(432,703,o),
(419,705,o),
(406,707,cs),
(262,730,o),
(100,640,o),
(55,512,cs),
(14,396,o),
(84,259,o),
(197,245,cs),
(264,237,o),
(332,236,o),
(399,249,cs),
(412,252,o),
(423,253,o),
(431,241,cs),
(439,228,o),
(431,218,o),
(422,209,cs),
(387,174,o),
(344,154,o),
(295,149,cs),
(288,148,o),
(284,150,o),
(282,156,cs),
(275,188,o),
(253,197,o),
(224,190,cs),
(190,182,o),
(151,171,o),
(149,130,cs),
(145,25,o),
(116,-3,o),
(252,-3,cs),
(269,-3,ls),
(481,-4,o),
(601,78,o),
(647,275,cs)
);
},
{
closed = 1;
nodes = (
(225,428,o),
(231,458,o),
(258,469,cs),
(298,485,o),
(341,496,o),
(384,497,cs),
(410,498,o),
(437,493,o),
(442,462,cs),
(447,431,o),
(433,413,o),
(401,403,cs),
(358,390,o),
(314,381,o),
(270,375,cs),
(249,372,o),
(234,378,o),
(230,400,cs)
);
}
);
width = 709;
}
);
note = nine;
unicode = 57;
},
{
glyphname = colon;
layers = (
{
layerId = m01;
shapes = (
{
closed = 1;
nodes = (
(51.08,428.57,o),
(84.14,392.11,o),
(127.95,391.9,cs),
(224.15,391.46,o),
(262.46,419.27,o),
(262.65,489.68,cs),
(262.82,554.65,o),
(235.18,579.75,o),
(162.81,580.31,cs),
(85.63,580.91,o),
(53.52,550.58,o),
(52.02,475.64,cs)
);
},
{
closed = 1;
nodes = (
(51.08,103.25,o),
(84.14,66.79,o),
(127.95,66.58,cs),
(224.15,66.14,o),
(262.46,93.95,o),
(262.65,164.36,cs),
(262.82,229.33,o),
(235.18,254.43,o),
(162.81,254.99,cs),
(85.63,255.59,o),
(53.52,225.26,o),
(52.02,150.32,cs)
);
}
);
width = 315;
}
);
note = colon;
unicode = 58;
},
{
glyphname = semicolon;
lastChange = "2024-02-24 20:35:46 +0000";
layers = (
{
layerId = m01;
shapes = (
{
closed = 1;
nodes = (
(141,371,o),
(70,344,o),
(57,310,cs),
(36,258,o),
(60,219,o),
(99,186,cs),
(133,158,o),
(127,126,o),
(109,92,cs),
(90,56,o),
(102,28,o),
(142,16,cs),
(178,5,o),
(208,16,o),
(233,40,cs),
(281,87,o),
(304,146,o),
(305,193,cs),
(305,302,o),
(268,351,o),
(190,363,cs)
);
},
{
closed = 1;
nodes = (
(66,512,o),
(99,476,o),
(143,476,cs),
(239,475,o),
(278,503,o),
(278,573,cs),
(278,638,o),
(250,663,o),
(178,664,cs),
(101,665,o),
(69,634,o),
(67,559,cs)
);
}
);
width = 357;
}
);
note = semicolon;
unicode = 59;
},
{
glyphname = less;
layers = (
{
layerId = m01;
shapes = (
{
closed = 1;
nodes = (
(139.19,469.38,o),
(98.64,431.52,o),
(62.96,392.2,cs),
(44.04,371.35,o),
(22.51,348.24,o),
(38.7,321.17,cs),
(46.58,307.99,o),
(65.21,296.21,o),
(76.35,285.9,cs),
(99.74,264.26,o),
(121.76,241.15,o),
(142.16,216.74,cs),
(176.08,176.16,o),
(208.04,105.77,o),
(262.75,87.99,cs),
(300,75.89,o),
(375.37,101.15,o),
(375.71,148.26,cs),
(375.95,182.6,o),
(338.59,222.55,o),
(318.82,247.42,cs),
(301.46,269.26,o),
(239.27,321.89,o),
(242.91,351.66,cs),
(245.64,373.93,o),
(282.48,403.99,o),
(296.03,419.96,cs),
(317.61,445.4,o),
(354.49,479.35,o),
(356.62,515.13,cs),
(360.14,574.36,o),
(291.8,564.09,o),
(253.22,554.78,c),
(220.11,552.74,o),
(192.26,522.14,o),
(176.77,506.74,cs)
);
}
);
width = 421;
}
);
note = less;
unicode = 60;
},
{
glyphname = equal;
lastChange = "2024-02-24 20:35:43 +0000";
layers = (
{
layerId = m01;
shapes = (
{
closed = 1;
nodes = (
(561,496,o),
(540,498,o),
(520,502,cs),
(399,528,o),
(283,503,o),
(159,503,cs),
(121,503,o),
(78,509,o),
(61,470,cs),
(37,416,o),
(64,336,o),
(118,317,cs),
(210,284,o),
(318,298,o),
(413,301,cs),
(457,302,o),
(501,298,o),
(544,302,cs),
(579,305,o),
(613,317,o),
(648,321,cs),
(663,323,o),
(698,316,o),
(711,328,cs),
(744,356,o),
(733,430,o),
(708,460,cs),
(684,489,o),
(631,501,o),
(581,498,cs)
);
},
{
closed = 1;
nodes = (
(50,108,o),
(40,34,o),
(72,5,cs),
(86,-6,o),
(120,0,o),
(136,-1,cs),
(171,-5,o),
(205,-17,o),
(240,-20,cs),
(283,-24,o),
(327,-20,o),
(370,-22,cs),
(466,-24,o),
(574,-38,o),
(666,-6,cs),
(720,14,o),
(747,94,o),
(723,148,cs),
(706,187,o),
(663,181,o),
(625,181,cs),
(504,180,o),
(391,204,o),
(272,181,cs),
(247,176,o),
(222,174,o),
(197,176,cs),
(149,178,o),
(99,166,o),
(76,138,cs)
);
}
);
width = 784;
}
);
note = equal;
unicode = 61;
},
{
glyphname = greater;
layers = (
{
layerId = m01;
shapes = (
{
closed = 1;
nodes = (
(128.92,564.09,o),
(60.57,574.36,o),
(64.1,515.13,cs),
(66.23,479.35,o),
(103.1,445.4,o),
(124.69,419.96,cs),
(138.24,403.99,o),
(175.08,373.93,o),
(177.81,351.66,cs),
(181.45,321.9,o),
(119.26,269.26,o),
(101.9,247.42,cs),
(82.13,222.55,o),
(44.77,182.6,o),
(45.01,148.26,cs),
(45.35,101.15,o),
(120.72,75.89,o),
(157.97,87.99,cs),
(212.68,105.77,o),
(244.65,176.16,o),
(278.56,216.74,cs),
(298.96,241.14,o),
(320.99,264.26,o),
(344.37,285.9,cs),
(355.51,296.21,o),
(374.14,307.99,o),
(382.02,321.17,cs),
(398.21,348.25,o),
(376.68,371.35,o),
(357.76,392.2,cs),
(322.08,431.53,o),
(281.53,469.39,o),
(243.95,506.74,cs),
(228.46,522.14,o),
(200.61,552.74,o),
(167.5,554.78,c)
);
}
);
width = 421;
}
);
note = greater;
unicode = 62;
},
{
glyphname = question;
lastChange = "2024-02-24 20:35:39 +0000";
layers = (
{
layerId = m01;
shapes = (
{
closed = 1;
nodes = (
(118,197,o),
(147,177,o),
(191,180,cs),
(232,182,o),
(272,195,o),
(271,245,cs),
(270,303,o),
(303,333,o),
(348,351,cs),
(420,380,o),
(448,438,o),
(461,507,cs),
(475,587,o),
(437,670,o),
(374,680,cs),
(280,695,o),
(184,701,o),
(90,675,cs),
(59,667,o),
(39,616,o),
(50,570,cs),
(59,532,o),
(88,544,o),
(113,548,cs),
(129,550,o),
(144,553,o),
(160,553,cs),
(193,553,o),
(237,562,o),
(249,522,cs),
(260,482,o),
(218,466,o),
(188,455,cs),
(139,438,o),
(118,406,o),
(115,357,cs),
(114,338,o),
(112,320,o),
(110,297,c),
(111,282,o),
(111,263,o),
(113,243,cs)
);
},
{
closed = 1;
nodes = (
(307,5,o),
(328,26,o),
(323,59,cs),
(318,97,o),
(298,123,o),
(259,129,cs),
(208,136,o),
(160,124,o),
(112,108,cs),
(69,93,o),
(63,56,o),
(70,21,cs),
(77,-16,o),
(99,-45,o),
(143,-46,c),
(191,-42,o),
(237,-29,o),
(281,-8,cs)
);
}
);
width = 502;
}
);
note = question;
unicode = 63;
},
{
glyphname = at;
layers = (
{
layerId = m01;
shapes = (
{
closed = 1;
nodes = (
(79.99,117.4,o),
(86.99,107.94,o),
(102,100.83,cs),
(231.9,39.29,o),
(368.4,11.7,o),
(511.48,25.8,cs),
(694.54,43.84,o),
(789.97,157.88,o),
(777.78,341.88,cs),
(773.69,403.52,o),
(768.75,465.45,o),
(750.08,525.14,cs),
(742.02,550.92,o),
(732.54,575.85,o),
(715.18,596.96,cs),
(683.02,636.06,o),
(630.61,648.14,o),
(581.89,626.15,cs),
(535.8,605.35,o),
(524.37,568.19,o),
(533.46,520.63,cs),
(546.99,449.9,o),
(557.39,378.56,o),
(571.73,308.01,cs),
(579.73,268.66,o),
(576.86,230.96,o),
(567.07,192.94,cs),
(562.71,176.01,o),
(553.5,168.34,o),
(537.23,179.55,cs),
(497.59,206.86,o),
(454.36,203.44,o),
(411.82,191.95,cs),
(366.04,179.58,o),
(321.85,170.52,o),
(273.49,181.28,cs),
(225.84,191.87,o),
(203.79,218.6,o),
(207.46,264.62,cs),
(211.2,311.46,o),
(217.72,358.35,o),
(227.05,404.4,cs),
(236.04,448.73,o),
(271.31,470.24,o),
(318.29,465.94,cs),
(355.45,462.54,o),
(390.7,451.7,o),
(425.31,438.56,cs),
(444.87,431.13,o),
(453.81,438.6,o),
(463.77,456.58,cs),
(494.56,512.18,o),
(441.09,614.92,o),
(367.96,607.01,cs),
(344.24,604.45,o),
(319.94,607.52,o),
(295.9,607.53,cs),
(157.43,607.55,o),
(103.2,567.77,o),
(60.17,436.24,cs),
(49.15,402.58,o),
(54.19,368.49,o),
(53.87,350.09,cs),
(56.8,266.94,o),
(63.7,199.94,o),
(76.8,133.54,cs)
);
},
{
closed = 1;
nodes = (
(495.83,349.81,o),
(455.36,378.27,o),
(407.03,379.12,cs),
(355.73,380.02,o),
(323.18,351.24,o),
(322.65,304.79,cs),
(322.08,255.06,o),
(357.59,253.78,o),
(392.94,252.16,cs),
(447.17,251.64,o),
(495.19,281.95,o),
(495.52,316.9,cs)
);
}
);
width = 832;
}
);
note = at;
unicode = 64;
},
{
glyphname = A;
kernRight = A;
lastChange = "2024-02-24 20:35:36 +0000";
layers = (
{
layerId = m01;
shapes = (
{
closed = 1;
nodes = (
(181,667,o),
(180,624,o),
(175,582,cs),
(171,545,o),
(175,512,o),
(214,497,cs),
(238,487,o),
(244,470,o),
(239,448,cs),
(236,431,o),
(231,414,o),
(224,398,cs),
(191,328,o),
(166,252,o),
(97,207,cs),
(40,170,o),
(17,125,o),
(28,58,cs),
(33,25,o),
(52,8,o),
(83,6,cs),
(136,3,o),
(188,4,o),
(240,16,cs),
(318,33,o),
(328,60,o),
(279,123,cs),
(260,148,o),
(269,171,o),
(277,196,cs),
(284,217,o),
(304,217,o),
(321,218,cs),
(375,222,o),
(430,216,o),
(484,213,cs),
(528,210,o),
(531,182,o),
(533,151,cs),
(535,133,o),
(519,122,o),
(509,109,cs),
(478,65,o),
(486,37,o),
(537,22,cs),
(598,3,o),
(661,2,o),
(724,7,cs),
(748,9,o),
(764,24,o),
(771,48,cs),
(784,94,o),
(764,169,o),
(723,193,cs),
(643,239,o),
(614,319,o),
(577,396,cs),
(556,439,o),
(554,480,o),
(585,520,cs),
(596,535,o),
(603,553,o),
(608,570,cs),
(628,637,o),
(606,673,o),
(538,683,cs),
(492,690,o),
(447,698,o),
(400,694,c),
(344,698,o),
(290,688,o),
(235,678,cs)
);
},
{
closed = 1;
nodes = (
(340,397,o),
(378,457,o),
(400,456,cs),
(425,456,o),
(465,395,o),
(461,354,cs),
(457,312,o),
(422,329,o),
(401,329,cs),
(379,329,o),
(340,315,o),
(340,362,cs)
);
}
);
width = 801;
}
);
note = A;
unicode = (65,192,193,194,195,196,197);
},
{
glyphname = B;
kernRight = B;
lastChange = "2024-02-24 20:35:33 +0000";
layers = (
{
layerId = m01;
shapes = (
{
closed = 1;
nodes = (
(106,686,o),
(78,670,o),
(64,651,cs),
(17,587,o),
(12,533,o),
(105,508,cs),
(134,500,o),
(141,485,o),
(141,459,cs),
(143,393,o),
(143,326,o),
(148,260,cs),
(151,219,o),
(142,185,o),
(113,156,cs),
(106,148,o),
(100,138,o),
(95,129,cs),
(73,87,o),
(77,63,o),
(111,29,cs),
(133,7,o),
(161,-5,o),
(192,-9,cs),
(233,-15,o),
(274,-23,o),
(315,-24,cs),
(395,-26,o),
(472,-10,o),
(541,32,cs),
(580,56,o),
(605,92,o),
(620,133,cs),
(639,182,o),
(629,254,o),
(574,295,cs),
(524,331,o),
(525,344,o),
(559,393,cs),
(573,413,o),
(584,437,o),
(589,461,cs),
(604,526,o),
(585,586,o),
(543,637,cs),
(517,668,o),
(489,702,o),
(445,709,cs),
(406,717,o),
(366,718,o),
(310,723,c),
(260,715,o),
(194,707,o),
(130,692,cs)
);
},
{
closed = 1;
nodes = (
(280,538,o),
(293,552,o),
(319,555,cs),
(355,560,o),
(389,553,o),
(420,536,cs),
(450,520,o),
(455,490,o),
(434,463,cs),
(414,438,o),
(388,426,o),
(357,426,cs),
(307,426,o),
(267,469,o),
(275,512,cs)
);
},
{
closed = 1;
nodes = (
(429,215,o),
(408,188,o),
(374,177,c),
(360,174,o),
(347,168,o),
(334,165,cs),
(296,157,o),
(268,188,o),
(280,225,cs),
(281,230,o),
(284,235,o),
(286,240,cs),
(301,284,o),
(312,291,o),
(359,291,c),
(398,298,o),
(422,271,o),
(425,247,cs)
);
}
);
width = 669;
}
);
note = B;
unicode = 66;
},
{
glyphname = C;
lastChange = "2024-02-24 20:35:29 +0000";
layers = (
{
layerId = m01;
shapes = (
{
closed = 1;
nodes = (
(561,215,o),
(537,252,o),
(501,264,cs),
(459,279,o),
(431,269,o),
(396,231,cs),
(377,209,o),
(352,200,o),
(322,206,cs),
(289,213,o),
(267,232,o),
(253,261,cs),
(232,307,o),
(227,355,o),
(256,396,cs),
(280,430,o),
(317,454,o),
(361,463,cs),
(402,472,o),
(402,474,o),
(424,440,cs),
(459,384,o),
(528,381,o),
(566,435,cs),
(602,484,o),
(614,540,o),
(596,600,cs),
(574,674,o),
(567,679,o),
(491,696,cs),
(446,706,o),
(404,699,o),
(369,668,cs),
(343,645,o),
(313,631,o),
(279,623,cs),
(259,618,o),
(240,611,o),
(221,604,cs),
(104,564,o),
(33,431,o),
(38,319,cs),
(42,242,o),
(67,169,o),
(109,102,cs),
(138,56,o),
(174,30,o),
(229,27,cs),
(296,24,o),
(362,21,o),
(427,2,cs),
(452,-5,o),
(479,2,o),
(503,17,cs),
(558,50,o),
(560,104,o),
(564,157,cs),
(564,171,ls)
);
}
);
width = 645;
}
);
note = C;
unicode = (67,199);
},
{
glyphname = D;
kernRight = D;
layers = (
{
layerId = m01;
shapes = (
{
closed = 1;
nodes = (
(593.85,124.22,o),
(607.84,140.11,o),
(616.46,156.55,cs),
(628.77,180.03,o),
(639.1,205.76,o),
(644.01,231.71,cs),
(667.12,353.75,o),
(641.72,468.5,o),
(584.75,576.82,cs),
(573.46,598.29,o),
(557,619.06,o),
(538.12,634.13,cs),
(477.86,682.22,o),
(407.79,699.69,o),
(332.15,684.74,cs),
(280.68,674.56,o),
(229.28,661.8,o),
(179.8,644.59,cs),
(142.81,631.73,o),
(106.43,613.51,o),
(74.38,591.09,cs),
(41.85,568.34,o),
(26.78,532.56,o),
(33.62,491.19,cs),
(37.5,467.7,o),
(49.17,451.49,o),
(74.5,444.5,cs),
(96.51,438.42,o),
(117.56,427.99,o),
(138.09,417.63,cs),
(158.8,407.17,o),
(176.02,389.88,o),
(176.5,366.57,cs),
(177.47,319.71,o),
(176.36,272.51,o),
(171.39,225.95,cs),
(168.32,197.22,o),
(148.66,176.49,o),
(120.98,164.25,cs),
(112.31,160.42,o),
(103.76,153.13,o),
(98.54,145.2,cs),
(71.9,104.77,o),
(99.16,37.82,o),
(148.38,26.48,cs),
(184.19,18.23,o),
(221.16,15.04,o),
(257.61,9.59,c),
(376.14,10.77,o),
(481.42,50.01,o),
(578.36,114.01,cs)
);
},
{
closed = 1;
nodes = (
(471.04,309.07,o),
(458.75,279.56,o),
(441.28,255.7,cs),
(411.93,215.62,o),
(368.32,220.57,o),
(341.17,261.9,cs),
(314.53,302.46,o),
(301.79,346.98,o),
(298.83,395.05,cs),
(295.85,443.33,o),
(306.42,456.94,o),
(353.53,462.43,cs),
(360.87,463.28,o),
(368.22,464.14,o),
(372.97,464.69,cs),
(441.88,465.62,o),
(495.61,401.64,o),
(478.69,337.88,cs)
);
}
);
width = 695;
}
);
note = D;
unicode = 68;
},
{
glyphname = E;
lastChange = "2024-02-24 20:37:22 +0000";
layers = (
{
layerId = m01;
shapes = (
{
closed = 1;
nodes = (
(330,706,o),
(301,707,o),
(273,703,cs),
(214,695,o),
(155,688,o),
(97,676,cs),
(53,666,o),
(35,630,o),
(43,585,cs),
(49,543,o),
(65,505,o),
(87,469,cs),
(105,439,o),
(113,407,o),
(113,371,cs),
(113,319,o),
(106,268,o),
(90,219,cs),
(81,189,o),
(73,158,o),
(65,128,cs),
(53,76,o),
(74,34,o),
(124,14,cs),
(141,7,o),
(159,1,o),
(177,-1,cs),
(263,-13,o),
(350,-15,o),
(436,3,cs),
(478,11,o),
(519,20,o),
(555,45,cs),
(592,72,o),
(633,145,o),
(615,199,cs),
(604,234,o),
(576,263,o),
(539,267,cs),
(503,272,o),
(480,251,o),
(463,222,cs),
(431,172,o),
(384,151,o),
(326,162,cs),
(304,167,o),
(284,174,o),
(278,198,cs),
(273,222,o),
(285,248,o),
(309,261,cs),
(322,269,o),
(338,273,o),
(352,277,cs),
(388,289,o),
(419,305,o),
(438,339,cs),
(450,360,o),
(452,381,o),
(437,401,cs),
(423,420,o),
(404,429,o),
(379,425,cs),
(362,422,o),
(344,420,o),
(326,421,cs),
(306,421,o),
(290,430,o),
(287,452,cs),
(284,473,o),
(297,484,o),
(315,490,cs),
(352,504,o),
(390,506,o),
(427,498,cs),
(477,486,o),
(521,501,o),
(562,526,cs),
(611,556,o),
(615,623,o),
(572,661,cs),
(544,686,o),
(512,702,o),
(475,705,cs),
(436,707,o),
(359,709,o),
(359,708,c)
);
}
);
width = 658;
}
);
note = E;
unicode = (69,200,201,202,203);
},
{
glyphname = F;
layers = (
{
layerId = m01;
shapes = (
{
closed = 1;
nodes = (
(316.49,428.3,o),
(313.68,428.57,o),
(310.94,428.26,cs),
(275.84,424.31,o),
(262.19,437.93,o),
(257.7,472.93,cs),
(254.05,501.33,o),
(271.4,518.25,o),
(303.09,524.77,cs),
(355.94,535.65,o),
(401.59,521.57,o),
(442.91,488.8,cs),
(467.05,469.66,o),
(482.16,469.24,o),
(508.16,485.74,cs),
(534.93,502.73,o),
(551.2,527.92,o),
(554.47,558.21,cs),
(558.1,591.87,o),
(559.58,626.58,o),
(555.57,660.06,cs),
(549.39,711.68,o),
(502.6,742.09,o),
(452.23,730.09,cs),
(437.34,726.54,o),
(424.15,716.36,o),
(409.61,710.68,cs),
(384.16,700.74,o),
(358.91,688.91,o),
(332.43,683.3,cs),
(278.39,671.85,o),
(222.59,667.67,o),
(169.48,653.24,cs),
(139.53,645.1,o),
(112.97,623.35,o),
(85.93,606.09,cs),
(67.81,594.52,o),
(58.57,575.73,o),
(57.69,554.37,cs),
(55.86,510.19,o),
(51.38,465.65,o),
(54.92,421.83,cs),
(61.93,335.26,o),
(73.39,249.04,o),
(83.53,162.74,cs),
(88,124.66,o),
(82.58,89.41,o),
(61.13,56.66,cs),
(45.86,33.34,o),
(47.43,15.54,o),
(68.66,-2.03,cs),
(82.37,-13.37,o),
(99.71,-22.35,o),
(116.89,-27.07,cs),
(158.92,-38.61,o),
(201.01,-31.77,o),
(243.1,-23.15,cs),
(293.41,-12.84,o),
(322.36,38.74,o),
(277.95,84.59,cs),
(243.55,120.1,o),
(226.98,168.4,o),
(238.02,220.27,cs),
(245.85,257.02,o),
(274.02,270.3,o),
(308.62,255.62,cs),
(331.28,246.01,o),
(354.83,241.96,o),
(373.82,259.74,cs),
(392.44,277.18,o),
(410.8,296.74,o),
(422.92,318.85,cs),
(445.32,359.71,o),
(423.86,407.19,o),
(379.38,420.11,cs),
(360.08,425.71,o),
(339.6,427.26,o),
(319.65,430.64,c),
(319.52,429.86,o),
(319.39,429.08,o),
(319.26,428.3,c)
);
}
);
width = 585;
}
);
note = F;
unicode = 70;
},
{
glyphname = G;
kernRight = G;
layers = (
{
layerId = m01;
shapes = (
{
closed = 1;
nodes = (
(144.11,2.18,o),
(201.45,-24.09,o),
(274.25,-11.24,cs),
(320.74,-3.04,o),
(362.94,11.01,o),
(402.31,37.56,cs),
(436.41,60.55,o),
(473.3,70.61,o),
(512.17,42.79,cs),
(526.81,32.31,o),
(545.15,25.99,o),
(562.69,20.81,cs),
(590.64,12.56,o),
(614.71,23.32,o),
(627.51,49.51,cs),
(633.87,62.52,o),
(637.8,77.22,o),
(640.16,91.6,cs),
(656.18,189.5,o),
(624.97,277.87,o),
(583.43,363.82,cs),
(570.44,390.71,o),
(547.58,406.3,o),
(518.27,410.11,cs),
(467.55,416.71,o),
(420.68,401.64,o),
(377.7,377.11,cs),
(347.59,359.93,o),
(334.18,328.1,o),
(347.86,307.81,cs),
(372.36,271.47,o),
(352.5,244.59,o),
(333.66,217.55,cs),
(319.71,197.53,o),
(296.87,193.16,o),
(273.92,195.93,cs),
(252.2,198.55,o),
(248.72,217.85,o),
(243.83,234.68,cs),
(224.48,301.37,o),
(241.71,356.34,o),
(299.78,394.21,cs),
(342.18,421.86,o),
(389.18,442.38,o),
(432.67,468.49,cs),
(464.08,487.35,o),
(494.85,508.12,o),
(522.7,531.82,cs),
(549.95,555.01,o),
(559.68,586.97,o),
(547.59,622.37,cs),
(531.96,668.15,o),
(457.38,715.53,o),
(408.98,713.93,cs),
(359.18,712.29,o),
(323.19,688.74,o),
(303.43,645.26,cs),
(283.57,601.55,o),
(249.15,574.72,o),
(212.2,548,cs),
(182.34,526.4,o),
(154.43,501.91,o),
(126.95,477.27,cs),
(77.33,432.78,o),
(50.55,375.34,o),
(41.02,310.54,cs),
(36.92,282.63,o),
(40.33,253.62,o),
(40.33,225.11,c),
(34.16,159.64,o),
(56.73,102.18,o),
(98.55,54.32,cs)
);
}
);
width = 682;
}
);
note = G;
unicode = 71;
},
{
glyphname = H;
kernLeft = H;
layers = (
{
layerId = m01;
shapes = (
{
closed = 1;
nodes = (
(370.65,421.75,o),
(338.53,424.84,o),
(306.33,426.67,cs),
(276.97,428.34,o),
(271.05,445.58,o),
(270.73,471.41,cs),
(270.23,511.95,o),
(295.56,539.45,o),
(314.59,570.87,cs),
(351.82,632.37,o),
(325.8,683.52,o),
(255.73,695.53,cs),
(195.24,705.9,o),
(144.4,684.48,o),
(97.08,652.59,cs),
(35.89,611.36,o),
(31.42,554.12,o),
(64.22,489.45,cs),
(118.58,382.26,o),
(135.69,269.95,o),
(72.87,158.04,cs),
(55.81,127.65,o),
(51.95,95.69,o),
(53.46,61.79,cs),
(54.58,36.62,o),
(66.91,22.16,o),
(90.64,17.27,cs),
(143.07,6.46,o),
(194.96,-4.32,o),
(249.69,4.68,cs),
(353.43,21.75,o),
(380.47,82.98,o),
(319.4,168.09,cs),
(315.1,174.08,o),
(309.59,180.1,o),
(307.9,186.92,cs),
(289.13,262.24,o),
(289.17,296.84,o),
(371.49,294.27,cs),
(405.62,293.2,o),
(440.21,295.38,o),
(473.78,290.53,cs),
(520.48,283.79,o),
(533.67,253.03,o),
(509.95,212.08,cs),
(497.95,191.36,o),
(481.73,173.05,o),
(470.07,152.17,cs),
(427.13,75.29,o),
(457.18,19.46,o),
(544.87,6.07,cs),
(599.97,-2.34,o),
(653.16,3.72,o),
(707.06,13.92,cs),
(744.52,21.01,o),
(757.75,43.6,o),
(757.57,78.32,cs),
(757.44,104.96,o),
(748.91,128.88,o),
(735.06,151.53,cs),
(721.6,173.54,o),
(704.88,195.54,o),
(706.1,222.48,cs),
(710.84,327.46,o),
(709.97,433.37,o),
(766.62,528.71,cs),
(796.93,579.73,o),
(779.23,622.23,o),
(726.36,648.85,cs),
(670.05,677.2,o),
(611.79,676.78,o),
(553.11,665.3,cs),
(484.96,651.96,o),
(464.21,611.53,o),
(489.66,547.47,cs),
(495.72,532.21,o),
(504.65,517.85,o),
(513.77,504.08,cs),
(539.03,465.97,o),
(520.78,425.93,o),
(475.04,422.56,cs),
(451.13,420.8,o),
(426.99,422.25,o),
(402.96,422.25,c),
(402.91,421.23,o),
(402.86,420.21,o),
(402.81,419.19,c)
);
}
);
width = 821;
}
);
note = H;
unicode = 72;
},
{
glyphname = I;
lastChange = "2024-02-24 20:35:14 +0000";
layers = (
{
layerId = m01;
shapes = (
{
closed = 1;
nodes = (
(386,37,o),
(396,49,o),
(394,68,cs),
(390,97,o),
(408,139,o),
(375,152,cs),
(326,174,o),
(325,210,o),
(325,252,cs),
(325,314,o),
(330,375,o),
(340,436,cs),
(344,461,o),
(353,480,o),
(372,495,cs),
(411,527,o),
(427,586,o),
(408,640,cs),
(392,686,o),
(353,696,o),
(310,697,cs),
(287,698,o),
(264,698,o),
(240,698,c),
(240,700,l),
(215,699,o),
(188,700,o),
(163,696,cs),
(116,688,o),
(66,685,o),
(49,626,cs),
(31,564,o),
(38,538,o),
(94,491,cs),
(100,485,o),
(107,477,o),
(107,470,cs),
(113,359,o),
(158,244,o),
(68,144,cs),
(40,112,o),
(54,44,o),
(89,30,cs),
(182,-8,o),
(276,-13,o),
(369,29,cs)
);
}
);
width = 455;
}
);
note = I;
unicode = (73,204,205,206,207);
},
{
glyphname = J;
layers = (
{
layerId = m01;
shapes = (
{
closed = 1;
nodes = (
(335.92,220.66,o),
(311.76,206.96,o),
(278.04,201.59,cs),
(243.07,196.02,o),
(236.92,219.14,o),
(229.99,244.87,cs),
(214.78,301.35,o),
(184.88,316.29,o),
(122.53,300.61,cs),
(58.42,284.48,o),
(18.28,235.7,o),
(28.62,186.47,cs),
(51.68,76.69,o),
(166.27,3.28,o),
(294.93,15.87,cs),
(412.73,27.4,o),
(477.79,78.73,o),
(505.62,180.46,cs),
(520.7,235.58,o),
(524.33,291.59,o),
(521.43,348.15,cs),
(518.93,397.08,o),
(530.53,437.49,o),
(571.52,470.26,cs),
(613.12,503.52,o),
(615.66,618.73,o),
(579.8,656.91,cs),
(576.17,660.78,o),
(571.15,664.13,o),
(566.14,665.79,cs),
(463.43,699.81,o),
(360.68,683.25,o),
(260.29,658.42,cs),
(213.22,646.78,o),
(198.18,599.25,o),
(199.08,553.48,cs),
(199.88,512.61,o),
(230.13,495.5,o),
(266.94,488.71,cs),
(285.71,485.25,o),
(297.58,474.24,o),
(306.29,457.29,cs),
(333.06,405.22,o),
(332.82,348.46,o),
(336.45,302.76,c),
(336.45,281.25,o),
(336.57,270.15,o),
(336.43,259.06,cs)
);
}
);
width = 637;
}
);
note = J;
unicode = 74;
},
{
glyphname = K;
kernRight = K;
lastChange = "2024-02-24 20:34:37 +0000";
layers = (
{
layerId = m01;
shapes = (
{
closed = 1;
nodes = (
(773,15,o),
(807,54,o),
(809,103,cs),
(810,140,o),
(774,145,o),
(750,158,cs),
(672,202,o),
(599,254,o),
(535,317,cs),
(506,345,o),
(497,373,o),
(531,404,cs),
(586,453,o),
(621,522,o),
(698,549,cs),
(745,566,o),
(750,616,o),
(744,659,cs),
(742,682,o),
(714,694,o),
(691,695,cs),
(637,699,o),
(584,701,o),
(530,700,cs),
(499,700,o),
(471,690,o),
(448,666,cs),
(433,649,o),
(429,631,o),
(441,613,cs),
(461,583,o),
(451,558,o),
(434,531,cs),
(414,496,o),
(389,466,o),
(360,438,cs),
(350,429,o),
(341,414,o),
(325,421,cs),
(309,428,o),
(312,445,o),
(310,460,cs),
(305,514,o),
(330,565,o),
(328,619,cs),
(326,651,o),
(312,681,o),
(277,681,cs),
(196,681,o),
(120,657,o),
(56,606,cs),
(12,572,o),
(21,510,o),
(72,489,cs),
(116,470,o),
(143,440,o),
(150,392,cs),
(156,348,o),
(163,303,o),
(166,258,cs),
(169,208,o),
(173,160,o),
(121,124,cs),
(91,104,o),
(92,43,o),
(116,34,cs),
(201,-1,o),
(289,-15,o),
(375,31,cs),
(415,53,o),
(418,107,o),
(378,125,cs),
(335,146,o),
(337,177,o),
(341,214,cs),
(345,250,o),
(364,251,o),
(388,238,cs),
(437,212,o),
(472,172,o),
(498,124,cs),
(508,107,o),
(509,93,o),
(502,75,cs),
(485,36,o),
(510,0,o),
(553,-1,cs),
(640,-1,l),
(672,2,o),
(700,3,o),
(727,7,cs)
);
}
);
width = 836;
}
);
note = K;
unicode = 75;
},
{
glyphname = L;
kernRight = L;
layers = (
{
layerId = m01;
shapes = (
{
closed = 1;
nodes = (
(561.04,27.7,o),
(572.53,44.2,o),
(564.42,130.87,cs),
(563.65,139.15,o),
(563.24,147.49,o),
(562.06,155.72,cs),
(556.85,192.19,o),
(544.1,225.48,o),
(507.46,239.84,cs),
(471.04,254.11,o),
(441.43,232.19,o),
(418.12,209.15,cs),
(387.98,179.35,o),
(354.49,178.78,o),
(321.18,192.45,cs),
(290.16,205.18,o),
(279.56,236.3,o),
(280.08,268.41,cs),
(281.72,371.32,o),
(277.5,472.89,o),
(347.91,563.65,cs),
(401.35,632.53,o),
(364.89,687.99,o),
(276.75,689.72,cs),
(225.63,690.72,o),
(175.07,685.9,o),
(124.91,678.08,cs),
(87.44,672.24,o),
(61.14,648.26,o),
(48.33,612.89,cs),
(36.59,580.45,o),
(44.39,549.31,o),
(69.98,526.64,cs),
(104.91,495.7,o),
(109.44,457.83,o),
(103.19,415.52,cs),
(90.23,327.76,o),
(76.53,240.09,o),
(65.05,152.14,cs),
(53.8,65.98,o),
(87.94,24.63,o),
(173.78,18.26,cs),
(225.33,14.43,o),
(277.01,12.31,o),
(324.43,9.66,c),
(377.74,12.26,o),
(426.96,11.92,o),
(475.46,17.63,cs)
);
}
);
width = 595;
}
);
note = L;
unicode = 76;
},
{
glyphname = M;
kernLeft = H;
lastChange = "2024-02-24 20:34:35 +0000";
layers = (
{
layerId = m01;
shapes = (
{
closed = 1;
nodes = (
(263,371,o),
(260,383,o),
(270,384,cs),
(276,385,o),
(284,377,o),
(289,370,cs),
(313,334,o),
(337,298,o),
(359,261,cs),
(384,219,o),
(413,211,o),
(456,234,cs),
(479,246,o),
(499,262,o),
(516,282,cs),
(553,328,o),
(590,372,o),
(627,417,cs),
(638,430,o),
(648,443,o),
(666,436,cs),
(685,430,o),
(690,413,o),
(690,396,cs),
(689,360,o),
(686,324,o),
(685,288,cs),
(685,245,o),
(667,218,o),
(628,196,cs),
(585,171,o),
(587,120,o),
(592,76,cs),
(597,40,o),
(615,12,o),
(657,7,cs),
(706,1,o),
(756,-1,o),
(806,4,cs),
(831,6,o),
(861,13,o),
(864,43,cs),
(868,97,o),
(878,154,o),
(832,199,cs),
(826,205,o),
(822,216,o),
(822,224,cs),
(824,323,o),
(829,422,o),
(853,518,cs),
(866,570,o),
(890,622,o),
(836,666,cs),
(812,686,o),
(781,690,o),
(753,694,cs),
(671,706,o),
(591,695,o),
(571,609,cs),
(558,552,o),
(515,515,o),
(473,478,cs),
(454,462,o),
(439,464,o),
(422,479,cs),
(369,523,o),
(326,573,o),
(322,647,cs),
(321,672,o),
(309,695,o),
(279,696,cs),
(242,696,o),
(204,696,o),
(168,690,cs),
(67,673,o),
(29,598,o),
(77,506,cs),
(98,466,o),
(112,424,o),
(114,379,cs),
(117,317,o),
(137,249,o),
(85,197,cs),
(39,151,o),
(33,91,o),
(49,41,cs),
(62,0,o),
(120,9,o),
(162,9,cs),
(179,9,o),
(197,10,o),
(214,13,cs),
(293,27,o),
(342,130,o),
(291,191,cs),
(261,228,o),
(265,262,o),
(263,292,cs),
(263,321,o),
(262,342,o),
(263,363,cs)
);
}
);
width = 919;
}
);
note = M;
unicode = 77;
},
{
glyphname = N;
layers = (
{
layerId = m01;
shapes = (
{
closed = 1;
nodes = (
(343.67,-3.26,o),
(370.85,-0.81,o),
(378.3,38.77,cs),
(385.32,76.04,o),
(390.37,110.41,o),
(353.11,134.83,cs),
(337.98,144.75,o),
(330.4,158.65,o),
(329.17,176.33,cs),
(325.4,230.7,o),
(321.62,285.08,o),
(318.07,339.47,cs),
(317.47,348.63,o),
(315.85,360.47,o),
(325.23,364.61,cs),
(337.37,369.97,o),
(342.54,357.01,o),
(348.62,349.74,cs),
(404.16,283.41,o),
(437.34,205.8,o),
(465.13,124.72,cs),
(498.21,28.23,o),
(505.13,24.86,o),
(608.08,20.88,cs),
(613.61,20.67,o),
(619.14,20.71,o),
(624.67,20.52,cs),
(669.86,19.05,o),
(686.83,47.44,o),
(690.48,86.17,cs),
(692.36,106.11,o),
(686.99,126.61,o),
(686.86,146.88,cs),
(685.92,284.39,o),
(665.32,425.27,o),
(767.39,542.94,cs),
(796.02,575.95,o),
(781.82,665.5,o),
(748.71,672.79,cs),
(669.96,690.13,o),
(590.82,715.67,o),
(508.45,695.29,cs),
(492.79,691.41,o),
(468.27,693.12,o),
(467.18,670.37,cs),
(465.81,641.74,o),
(457.55,605.67,o),
(484.28,587.26,cs),
(522.22,561.12,o),
(525.93,529.56,o),
(515.92,490.88,cs),
(511.82,475.03,o),
(511.97,450.19,o),
(497.46,447.38,cs),
(480.15,444.03,o),
(466.82,464.39,o),
(456.09,479.35,cs),
(411.37,541.69,o),
(366.74,604.01,o),
(313.66,659.84,cs),
(298.43,675.86,o),
(281.62,687.9,o),
(260.95,693.93,cs),
(194.85,713.2,o),
(128.79,700.38,o),
(73.45,668.55,cs),
(30.61,643.9,o),
(48.57,586.12,o),
(44.67,542.12,cs),
(42.79,520.92,o),
(44.67,499.61,o),
(52.46,479.29,cs),
(57.79,465.38,o),
(66.66,454.24,o),
(81.96,453.18,cs),
(134.92,449.52,o),
(149.75,417.8,o),
(147.34,370.14,cs),
(145.99,343.45,o),
(148.3,316.55,o),
(149.45,289.77,cs),
(150.55,263.99,o),
(142.47,241.32,o),
(122.19,225.94,cs),
(66.08,183.38,o),
(59.52,122.45,o),
(57.67,59.42,cs),
(56.87,32.01,o),
(70.8,15.13,o),
(97.63,11.67,cs),
(141.56,5.99,o),
(185.71,2.03,o),
(237.29,-3.46,c),
(257.68,-3.46,o),
(285.38,-3.57,o),
(313.09,-3.43,cs)
);
}
);
width = 814;
}
);
note = N;
unicode = (78,209);
},
{
glyphname = O;
kernRight = O;
layers = (
{
layerId = m01;
shapes = (
{
closed = 1;
nodes = (
(53.61,422.51,o),
(51.02,411.72,o),
(48.89,400.86,cs),
(14.69,226.03,o),
(93.53,84.32,o),
(248.84,51.81,cs),
(330.92,34.62,o),
(415.2,30.76,o),
(498.64,50.79,cs),
(615.32,78.8,o),
(684.15,150.41,o),
(700.47,269.33,cs),
(714.19,369.29,o),
(691.95,463.96,o),
(645.64,553.07,cs),
(621.2,600.09,o),
(581.61,627.85,o),
(531.48,643.02,cs),
(479.55,658.73,o),
(426.63,663.69,o),
(390.05,661.88,c),
(163.39,662.01,o),
(99.98,608.23,o),
(56.29,433.25,cs)
);
},
{
closed = 1;
nodes = (
(225.01,241.2,o),
(224.06,322.46,o),
(256.9,394.86,cs),
(278.36,442.17,o),
(332.74,431.21,o),
(375.73,435.83,cs),
(384.71,436.8,o),
(394.05,433.86,o),
(403.27,433.28,cs),
(488.05,427.95,o),
(531.54,358.76,o),
(499.5,279.85,cs),
(490.7,258.18,o),
(472.82,247.47,o),
(451.43,241.7,cs),
(425.5,234.69,o),
(399.29,229.3,o),
(372.07,230.73,cs),
(360.11,231.49,o),
(348.15,232.14,o),
(336.2,233.02,cs)
);
}
);
width = 747;
}
);
note = O;
unicode = (79,210,211,212,213,214,216);
},
{
glyphname = P;
layers = (
{
layerId = m01;
shapes = (
{
closed = 1;
nodes = (
(100.9,686.02,o),
(62.28,656.75,o),
(49.13,613.75,cs),
(38.59,579.27,o),
(55.22,540.06,o),
(89.98,515.26,cs),
(103.59,505.54,o),
(113.6,490.67,o),
(113.07,472.76,cs),
(111.19,408.14,o),
(109.55,343.47,o),
(105.3,278.99,cs),
(104.13,261.26,o),
(99.19,238.82,o),
(87.38,227.61,cs),
(35.83,178.7,o),
(47.94,117.38,o),
(50.66,58.48,cs),
(52.04,28.51,o),
(66.1,8.16,o),
(102.26,0.84,cs),
(152.24,-9.27,o),
(201.73,-3.66,o),
(251.28,-6.97,cs),
(328,-12.09,o),
(328.13,54.93,o),
(352.19,98.58,cs),
(373.07,136.47,o),
(332.94,142.07,o),
(315.44,157.1,cs),
(298.5,171.64,o),
(307.35,184.94,o),
(309.78,199.54,cs),
(311.78,211.55,o),
(318.23,216.61,o),
(330.87,215.8,cs),
(461.99,207.43,o),
(555.66,274.86,o),
(635.27,368.53,cs),
(697.55,441.81,o),
(675.06,567.41,o),
(594.29,618.38,cs),
(494.67,681.23,o),
(385.54,705.69,o),
(277.92,704.34,c),
(228.5,709.67,o),
(188.16,705.71,o),
(148.23,696.7,cs)
);
},
{
closed = 1;
nodes = (
(304.62,530.68,o),
(325.09,544.54,o),
(426.21,520.84,cs),
(461.37,512.6,o),
(497.04,499.85,o),
(499.01,456.66,cs),
(501.09,411.01,o),
(464.52,393.43,o),
(428.98,382.03,cs),
(400.31,372.83,o),
(369.17,371.37,o),
(354.17,368.92,c),
(279.36,368.5,o),
(277.44,370.77,o),
(287.42,429.51,cs)
);
}
);
width = 702;
}
);
note = P;
unicode = 80;
},
{
glyphname = Q;
kernRight = Q;
layers = (
{
layerId = m01;
shapes = (
{
closed = 1;
nodes = (
(659.97,580.2,o),
(608.41,640.68,o),
(524.54,674.83,cs),
(407.93,722.31,o),
(292.46,702.73,o),
(178.69,663.51,cs),
(118.39,642.72,o),
(81.73,599.01,o),
(66.6,536.23,cs),
(41.69,432.9,o),
(42.15,329.37,o),
(58.83,225.07,cs),
(83.69,69.59,o),
(167.37,6.44,o),
(323.95,25.29,cs),
(390.28,33.28,o),
(456.12,48.55,o),
(520.64,9.97,cs),
(548.59,-6.74,o),
(585.12,-5.25,o),
(618.5,1.97,cs),
(659.33,10.79,o),
(698.56,30.74,o),
(709.88,70.04,cs),
(720.8,107.98,o),
(702.74,145.99,o),
(667.28,171.03,cs),
(650.61,182.81,o),
(644.8,199.14,o),
(648.96,219.68,cs),
(661.66,282.36,o),
(668.47,345.73,o),
(667.18,409.72,cs),
(667.18,435.59,o),
(668.81,461.59,o),
(666.89,487.32,cs)
);
},
{
closed = 1;
nodes = (
(312.99,240.73,o),
(291.53,256.29,o),
(273.63,275.66,cs),
(229.21,323.73,o),
(224.1,376.37,o),
(246.86,434.74,cs),
(271.3,497.44,o),
(336.64,529.58,o),
(397.5,502.37,cs),
(450.73,478.57,o),
(508.54,454.93,o),
(518.45,384.94,cs),
(519.97,374.22,o),
(519.07,362.86,o),
(517.4,352.09,cs),
(515.69,341.09,o),
(511.81,328.92,o),
(500.53,325.05,cs),
(488.48,320.91,o),
(483.74,333.96,o),
(477.11,340.68,cs),
(433.56,384.88,o),
(403.86,388.55,o),
(352.94,354.17,cs),
(330.23,338.83,o),
(345.37,314.71,o),
(340.68,295.16,cs),
(337.4,278.67,o),
(352.9,252.51,o),
(335.33,247.32,cs)
);
}
);
width = 751;
}
);
note = Q;
unicode = 81;
},
{
glyphname = R;
kernRight = R;
layers = (
{
layerId = m01;
shapes = (
{
closed = 1;
nodes = (
(349.76,50.76,o),
(368.51,98.98,o),
(340.87,129.77,cs),
(307.77,166.64,o),
(312.32,207.39,o),
(311.52,249.25,cs),
(311.35,258.33,o),
(309.82,269.19,o),
(320.67,273.12,cs),
(330.44,276.66,o),
(343.53,276.96,o),
(349.23,268.32,cs),
(386,212.51,o),
(442.73,166.72,o),
(439.41,90.35,cs),
(437.68,50.37,o),
(451.09,15.36,o),
(493.67,8.67,cs),
(555.84,-1.1,o),
(617.6,4.78,o),
(671.59,42.63,cs),
(708.38,68.41,o),
(708.43,115.31,o),
(673.02,141.74,cs),
(651.57,157.76,o),
(629.54,173.25,o),
(609.67,191.1,cs),
(551.86,243.03,o),
(547.62,287.83,o),
(589.26,350.63,cs),
(608.05,378.98,o),
(623.86,409.66,o),
(638,440.66,cs),
(676.99,526.18,o),
(657.83,585.56,o),
(576.46,632.27,cs),
(554.98,644.6,o),
(531.92,655.48,o),
(508.25,662.51,cs),
(376.5,701.62,o),
(243.51,702.88,o),
(108.24,679.81,cs),
(52.17,670.25,o),
(44.62,634.53,o),
(39.99,591.93,cs),
(35.52,550.83,o),
(45.23,515.21,o),
(89.34,500.83,cs),
(119.89,490.87,o),
(133.34,470.18,o),
(137.96,440.16,cs),
(146.5,384.71,o),
(138.01,329.4,o),
(138.62,274.07,cs),
(138.98,241.71,o),
(128.2,220.67,o),
(101.49,203.08,cs),
(52.18,170.61,o),
(50.7,119.86,o),
(59.36,69.26,cs),
(67.33,22.68,o),
(109.52,27.69,o),
(142.96,22,cs),
(160.2,19.07,o),
(177.86,18.64,o),
(190.91,17.47,c),
(234.11,20.47,o),
(273.49,19.23,o),
(310.1,34.37,cs)
);
},
{
closed = 1;
nodes = (
(420.76,526.24,o),
(449.19,511.85,o),
(451.74,468.41,cs),
(454.19,426.87,o),
(408.57,381.3,o),
(365.1,380.48,cs),
(304.53,379.34,o),
(299.38,384.05,o),
(298.3,441.52,cs),
(297.11,505.16,o),
(315.59,524.21,o),
(382.05,525.49,cs)
);
}
);
width = 732;
}
);
note = R;
unicode = 82;
},
{
glyphname = S;
kernRight = S;
layers = (
{
layerId = m01;
shapes = (
{
closed = 1;
nodes = (
(559.16,27.2,o),
(598.92,65.77,o),
(626.26,119.98,cs),
(650.07,167.21,o),
(643.1,261.94,o),
(612.97,282.31,cs),
(570.51,311.02,o),
(525.08,333.19,o),
(474.19,342.92,cs),
(424.31,352.45,o),
(374.43,362.06,o),
(324.75,372.59,cs),
(309.4,375.84,o),
(295.61,382.09,o),
(288.29,399.02,cs),
(277.43,424.13,o),
(281.4,446.61,o),
(298.21,466.16,cs),
(317.42,488.51,o),
(341.82,501.83,o),
(371.97,490.08,cs),
(405.47,477.04,o),
(437.68,460.67,o),
(471.25,447.85,cs),
(529,425.79,o),
(574.09,459.01,o),
(572.1,519.72,cs),
(570.26,575.91,o),
(553.69,629.12,o),
(537.92,681.94,cs),
(519.9,742.3,o),
(444.44,764.95,o),
(395.87,722.87,cs),
(329.27,665.18,o),
(258.22,614.05,o),
(186.51,563.41,cs),
(160.65,545.14,o),
(141.04,520.53,o),
(122,495.18,cs),
(66.84,421.74,o),
(91.49,275.55,o),
(210.05,257.65,cs),
(266.92,249.06,o),
(325.73,242.13,o),
(379.92,218.97,cs),
(401.27,209.85,o),
(418.4,198.77,o),
(401.59,171.26,cs),
(371.57,122.14,o),
(265.7,115.64,o),
(233.12,161.78,cs),
(203.21,204.14,o),
(161.56,212.06,o),
(115.16,200.64,cs),
(68.62,189.19,o),
(35.95,136.05,o),
(30.44,72.01,cs),
(26.47,25.83,o),
(49.74,-1.8,o),
(89.41,-17.64,cs),
(144.36,-39.59,o),
(202.72,-42.6,o),
(250,-44.91,cs),
(344.54,-45.03,o),
(423.46,-25.11,o),
(501.13,4.83,cs)
);
}
);
width = 677;
}
);
note = S;
unicode = 83;
},
{
glyphname = T;
layers = (
{
layerId = m01;
shapes = (
{
closed = 1;
nodes = (
(17.62,668.44,o),
(21.69,677.73,o),
(32.34,512.88,cs),
(32.52,510.11,o),
(33.21,507.35,o),
(33.14,504.6,cs),
(32.85,491.58,o),
(38.88,484.58,o),
(51.74,481.28,cs),
(86.37,472.39,o),
(121.97,470.7,o),
(156.28,476.81,cs),
(177.73,480.63,o),
(175.5,510.4,o),
(189.21,525.07,cs),
(194.23,530.45,o),
(198.64,536.42,o),
(203.07,542.32,cs),
(219.29,563.99,o),
(241.51,557.4,o),
(261.3,552.27,cs),
(280.26,547.35,o),
(280.3,529.29,o),
(278.88,513.11,cs),
(270.28,414.56,o),
(277.4,315.47,o),
(266.87,216.77,cs),
(263.5,185.14,o),
(259.22,162.87,o),
(228.37,149.21,cs),
(181.74,128.55,o),
(194.73,86,o),
(197.8,50.09,cs),
(200.53,18.09,o),
(230.02,11.48,o),
(255.6,7.81,cs),
(317.91,-1.15,o),
(380.6,-5.09,o),
(443.42,3.91,cs),
(470.34,7.77,o),
(501.78,4.54,o),
(507.54,42.74,cs),
(513.62,83.08,o),
(517.75,123.5,o),
(474.16,147.73,cs),
(455.72,157.98,o),
(448.91,171.7,o),
(449.93,192.78,cs),
(455.03,298.96,o),
(458.67,405.21,o),
(463.67,511.4,cs),
(465.27,545.52,o),
(489.8,556.86,o),
(517.46,535.91,cs),
(531.95,524.94,o),
(543.94,510.25,o),
(555.44,495.93,cs),
(562.13,487.59,o),
(568.07,481.2,o),
(579.45,479.74,cs),
(663.7,468.99,o),
(709.63,503.07,o),
(720.02,584.83,cs),
(721.77,598.58,o),
(721.51,612.7,o),
(724.47,626.15,cs),
(731.22,656.81,o),
(715.62,668,o),
(688.51,672.51,cs),
(576.03,691.24,o),
(462.53,696.62,o),
(334.4,700.7,c),
(293.35,698.9,o),
(237.21,701.32,o),
(182.67,693.16,cs)
);
}
);
width = 752;
}
);
note = T;
unicode = 84;
},
{
glyphname = U;
lastChange = "2024-02-24 20:32:40 +0000";
layers = (
{
layerId = m01;
shapes = (
{
closed = 1;
nodes = (
(155,78,o),
(183,30,o),
(317,18,cs),
(354,14,o),
(391,11,o),
(427,18,cs),
(470,27,o),
(519,21,o),
(551,58,cs),
(592,103,o),
(615,157,o),
(623,217,cs),
(635,306,o),
(621,397,o),
(639,485,cs),
(641,496,o),
(640,509,o),
(654,516,cs),
(717,545,o),
(730,575,o),
(712,644,cs),
(704,672,o),
(687,685,o),
(660,685,cs),
(607,684,o),
(553,683,o),
(500,678,cs),
(427,671,o),
(418,662,o),
(415,588,cs),
(414,558,o),
(403,518,o),
(435,501,cs),
(472,482,o),
(474,454,o),
(473,421,cs),
(472,369,o),
(467,318,o),
(455,267,cs),
(439,198,o),
(397,175,o),
(327,197,cs),
(313,201,o),
(305,209,o),
(301,223,cs),
(284,293,o),
(272,364,o),
(274,436,cs),
(274,453,o),
(270,478,o),
(288,485,cs),
(341,506,o),
(332,551,o),
(333,592,cs),
(333,641,o),
(310,669,o),
(261,677,cs),
(204,686,o),
(147,687,o),
(90,684,cs),
(41,682,o),
(32,650,o),
(31,613,cs),
(29,573,o),
(27,530,o),
(80,519,cs),
(98,515,o),
(104,507,o),
(107,490,cs),
(115,444,o),
(119,397,o),
(117,329,c),
(118,307,o),
(115,263,o),
(124,222,cs)
);
}
);
width = 748;
}
);
note = U;
unicode = (85,217,218,219,220);
},
{
glyphname = V;
layers = (
{
layerId = m01;
shapes = (
{
closed = 1;
nodes = (
(569.12,693.87,o),
(543.38,676.59,o),
(549.44,571.59,cs),
(552.99,510.13,o),
(556.72,453.51,o),
(532.5,396.94,cs),
(513.22,351.92,o),
(493.22,307.2,o),
(473.95,262.18,cs),
(469.7,252.26,o),
(466.06,243.01,o),
(452.62,245.92,cs),
(439.82,248.69,o),
(423.52,242.7,o),
(416.13,259.35,cs),
(382.81,334.45,o),
(344.06,407.49,o),
(329.04,489.54,cs),
(325.91,506.65,o),
(328.51,520.66,o),
(339.34,535.97,cs),
(365.73,573.28,o),
(331.49,685.48,o),
(289.44,695.03,cs),
(229.1,708.73,o),
(167.33,717.26,o),
(105.08,710.35,cs),
(49.88,704.22,o),
(34.66,663.12,o),
(28.08,616.34,cs),
(22.03,573.31,o),
(19.64,532.5,o),
(73.59,515.08,cs),
(110.93,503.03,o),
(129.14,476.02,o),
(143.26,437.34,cs),
(195.9,293.14,o),
(255.7,152.32,o),
(351.86,29.26,cs),
(410.41,-45.68,o),
(515.16,-12.6,o),
(552.46,47.59,cs),
(621.59,159.16,o),
(670.85,279.62,o),
(719.43,400.43,cs),
(742.12,456.85,o),
(770.1,504.51,o),
(832.16,523.87,cs),
(851.35,529.86,o),
(863.23,546.09,o),
(863.15,566.08,cs),
(862.71,675.57,o),
(838.59,718.55,o),
(734.26,713.08,cs),
(714.96,711.09,o),
(695.63,709.42,o),
(676.37,707.05,cs)
);
}
);
width = 889;
}
);
note = V;
unicode = 86;
},
{
glyphname = W;
lastChange = "2024-02-24 20:32:46 +0000";
layers = (
{
layerId = m01;
shapes = (
{
closed = 1;
nodes = (
(685,20,o),
(718,63,o),
(695,151,cs),
(693,160,o),
(691,170,o),
(693,179,cs),
(722,293,o),
(740,412,o),
(843,491,cs),
(905,538,o),
(897,618,o),
(830,651,cs),
(774,679,o),
(716,692,o),
(652,678,cs),
(583,662,o),
(573,645,o),
(579,574,cs),
(582,540,o),
(613,518,o),
(609,485,cs),
(604,447,o),
(592,409,o),
(576,374,cs),
(571,363,o),
(567,347,o),
(555,347,cs),
(540,347,o),
(541,365,o),
(537,375,cs),
(509,441,o),
(458,457,o),
(413,412,cs),
(398,397,o),
(385,380,o),
(373,362,cs),
(359,339,o),
(346,341,o),
(337,364,cs),
(313,422,o),
(277,476,o),
(325,544,cs),
(357,591,o),
(329,658,o),
(283,672,cs),
(211,693,o),
(142,685,o),
(76,650,cs),
(21,621,o),
(7,534,o),
(57,498,cs),
(96,469,o),
(115,430,o),
(132,389,cs),
(154,338,o),
(172,287,o),
(195,238,cs),
(211,204,o),
(219,172,o),
(205,137,cs),
(194,108,o),
(208,86,o),
(230,73,cs),
(263,55,o),
(299,42,o),
(337,35,cs),
(360,31,o),
(377,37,o),
(393,56,cs),
(419,89,o),
(424,132,o),
(447,167,cs),
(451,174,o),
(456,180,o),
(461,186,c),
(466,180,o),
(472,174,o),
(476,168,cs),
(495,138,o),
(501,104,o),
(509,71,cs),
(518,33,o),
(538,11,o),
(573,17,c),
(591,17,ls)
);
}
);
width = 911;
}
);
note = W;
unicode = 87;
},
{
glyphname = X;
layers = (
{
layerId = m01;
shapes = (
{
closed = 1;
nodes = (
(639.91,7.3,o),
(668.5,9.55,o),
(697.1,9.77,cs),
(737.96,10.08,o),
(746.33,43.43,o),
(759.96,70.61,cs),
(772.69,95.98,o),
(755.22,112.26,o),
(738.63,127.77,cs),
(672.56,189.54,o),
(618.5,260.33,o),
(576.73,340.69,cs),
(567.53,358.4,o),
(565.39,373.68,o),
(579.83,388.59,cs),
(637.49,448.11,o),
(688.95,514.69,o),
(767.53,550.17,cs),
(788,559.41,o),
(802.12,576.46,o),
(816.35,594.17,cs),
(844.68,629.43,o),
(833.3,653.52,o),
(796.6,666.85,cs),
(702.07,701.17,o),
(607.23,705.85,o),
(514.02,660.5,cs),
(482.98,645.4,o),
(475.38,619.18,o),
(495.68,594.69,cs),
(533.11,549.52,o),
(514.71,517.08,o),
(481.2,482.54,cs),
(404.81,403.81,o),
(420.92,408.81,o),
(348.92,485.1,cs),
(312.7,523.48,o),
(293.71,551.41,o),
(339.77,597.7,cs),
(374.34,632.44,o),
(356.78,665.34,o),
(306.61,669.54,cs),
(221.77,676.65,o),
(141.15,658.84,o),
(63.84,624.31,cs),
(28.98,608.74,o),
(22.57,577.29,o),
(50.3,549.92,cs),
(61.25,539.11,o),
(75.66,531.65,o),
(88.93,523.36,cs),
(153.27,483.17,o),
(212.17,438.01,o),
(241.84,364.32,cs),
(249.27,345.87,o),
(248.77,329.83,o),
(239.65,311.55,cs),
(200.53,233.08,o),
(152.64,163.6,o),
(70.45,123.43,cs),
(43.5,110.26,o),
(34.37,82.28,o),
(40.69,54.48,cs),
(45.85,31.78,o),
(66.41,16.42,o),
(89.32,15.07,cs),
(145.45,11.76,o),
(201.57,4.01,o),
(258.1,11.76,cs),
(308.69,18.69,o),
(334.36,57.07,o),
(319.64,106.46,cs),
(302.16,165.12,o),
(353.71,253.37,o),
(413.55,266.77,cs),
(418.64,267.91,o),
(424.57,267.99,o),
(429.53,266.57,cs),
(496.84,247.29,o),
(524.82,183.57,o),
(494.09,120.56,cs),
(489.64,111.44,o),
(485.53,102.09,o),
(482.18,92.52,cs),
(468.22,52.55,o),
(494.09,11.98,o),
(536.34,9.26,cs),
(561.2,7.66,o),
(586.25,8.97,o),
(611.22,8.97,c),
(611.24,7.97,o),
(611.27,6.97,o),
(611.31,5.97,c)
);
}
);
width = 858;
}
);
note = X;
unicode = 88;
},
{
glyphname = Y;
layers = (
{
layerId = m01;
shapes = (
{
closed = 1;
nodes = (
(474.03,63.33,o),
(476.87,103.22,o),
(453.78,136.03,cs),
(419.07,185.36,o),
(425.91,237.5,o),
(449.81,283.39,cs),
(511.55,401.94,o),
(599.18,500.76,o),
(704.12,583.4,cs),
(724.04,599.09,o),
(739.4,614.55,o),
(735.49,640.05,cs),
(731.47,666.3,o),
(712.61,681.51,o),
(687.82,688.71,cs),
(633.86,704.36,o),
(579.48,700.14,o),
(525.95,687.91,cs),
(477.47,676.84,o),
(462.39,650.01,o),
(474.67,601.66,cs),
(480.65,578.1,o),
(478.46,557.34,o),
(460.39,540.47,cs),
(433.39,515.25,o),
(405.7,490.78,o),
(378.21,466.09,cs),
(370.07,458.77,o),
(361.6,455.66,o),
(350.59,461.67,cs),
(299.72,489.45,o),
(261.14,559.69,o),
(267.47,616.54,cs),
(271.22,650.21,o),
(259.19,675.22,o),
(225.89,681.03,cs),
(185.14,688.14,o),
(143.11,693.54,o),
(102.03,691.55,cs),
(62.08,689.62,o),
(31.46,668.4,o),
(24.29,623.38,cs),
(15.21,566.32,o),
(55.33,539.44,o),
(92.6,512.81,cs),
(158.58,465.65,o),
(210.34,405.55,o),
(252.29,337.71,cs),
(304.88,252.66,o),
(276.77,176.68,o),
(220.92,103.11,cs),
(189.61,61.87,o),
(210.98,17.5,o),
(262.51,9.79,cs),
(298.9,4.34,o),
(335.97,3.44,o),
(370.97,0.65,c),
(402.83,8.73,o),
(443.4,-8.2,o),
(459.41,29.22,cs)
);
}
);
width = 757;
}
);
note = Y;
unicode = (89,221,376);
},
{
glyphname = Z;
kernRight = Z;
lastChange = "2024-02-24 20:32:53 +0000";
layers = (
{
layerId = m01;
shapes = (
{
closed = 1;
nodes = (
(565,8,o),
(593,28,o),
(608,65,cs),
(616,84,o),
(625,104,o),
(632,124,cs),
(656,193,o),
(653,199,o),
(584,223,cs),
(528,242,o),
(473,253,o),
(425,203,cs),
(401,178,o),
(369,171,o),
(337,167,cs),
(328,166,o),
(318,162,o),
(311,171,cs),
(304,181,o),
(312,189,o),
(317,196,cs),
(370,276,o),
(424,356,o),
(495,422,cs),
(551,475,o),
(603,530,o),
(593,619,cs),
(587,671,o),
(576,690,o),
(521,692,cs),
(439,694,o),
(356,695,o),
(274,697,cs),
(212,699,o),
(151,691,o),
(90,677,cs),
(77,673,o),
(65,668,o),
(60,655,cs),
(37,604,o),
(49,550,o),
(50,497,cs),
(50,492,o),
(63,484,o),
(71,481,cs),
(108,468,o),
(145,461,o),
(185,472,cs),
(204,477,o),
(219,487,o),
(221,505,cs),
(223,539,o),
(246,544,o),
(272,547,cs),
(296,549,o),
(320,551,o),
(343,552,cs),
(350,553,o),
(360,556,o),
(362,546,cs),
(363,541,o),
(359,534,o),
(355,529,cs),
(294,445,o),
(221,372,o),
(148,299,cs),
(99,249,o),
(60,192,o),
(50,120,cs),
(39,41,o),
(72,2,o),
(150,2,cs),
(209,2,o),
(459,8,o),
(525,8,cs)
);
}
);
width = 678;
}
);
note = Z;
unicode = 90;
},
{
glyphname = bracketleft;
lastChange = "2024-02-24 20:32:57 +0000";
layers = (
{
layerId = m01;
shapes = (
{
closed = 1;
nodes = (
(357,151,o),
(322,168,o),
(288,177,c),
(247,269,o),
(267,432,o),
(299,513,c),
(453,572,o),
(386,717,o),
(216,710,c),
(141,701,o),
(55,632,o),
(69,585,c),
(112,475,o),
(80,353,o),
(94,257,cs),
(110,157,o),
(17,118,o),
(69,19,cs),
(139,-105,o),
(555,6,o),
(376,137,cs)
);
}
);
width = 501;
}
);
note = bracketleft;
unicode = 91;
},
{
glyphname = backslash;
lastChange = "2024-02-24 20:33:03 +0000";
layers = (
{
layerId = m01;
shapes = (
{
closed = 1;
nodes = (
(501,50,o),
(567,91,o),
(573,134,cs),
(575,151,o),
(569,217,o),
(561,231,cs),
(545,262,o),
(497,240,o),
(480,271,cs),
(460,309,o),
(433,350,o),
(410,386,cs),
(376,442,o),
(351,480,o),
(309,533,cs),
(289,558,o),
(280,617,o),
(255,635,cs),
(209,670,o),
(127,648,o),
(96,599,cs),
(72,563,o),
(73,484,o),
(110,472,cs),
(194,445,o),
(232,290,o),
(316,204,cs),
(334,186,o),
(352,87,o),
(365,66,cs),
(389,24,o),
(433,14,o),
(467,32,cs)
);
}
);
width = 654;
}
);
note = backslash;
unicode = 92;
},
{
glyphname = bracketright;
layers = (
{
layerId = m01;
shapes = (
{
closed = 1;
nodes = (
(483.77,118.26,o),
(390.46,157.12,o),
(406.12,256.9,cs),
(420.25,352.99,o),
(388.18,475.21,o),
(431.64,584.94,c),
(445.81,632.38,o),
(359.57,701.38,o),
(284.65,710.3,c),
(114.86,717.06,o),
(47.41,572.3,o),
(201.57,512.79,c),
(233.99,431.98,o),
(253.41,268.73,o),
(212.21,177.23,c),
(178.35,168.2,o),
(143.71,150.88,o),
(124.16,136.59,cs),
(-54.43,6.08,o),
(361.94,-105.13,o),
(431.43,19.05,cs)
);
}
);
width = 501;
}
);
note = bracketright;
unicode = 93;
},
{
glyphname = asciicircum;
lastChange = "2024-02-24 20:33:09 +0000";
layers = (
{
layerId = m01;
shapes = (
{
closed = 1;
nodes = (
(225,498,o),
(137,354,o),
(58,262,cs),
(25,223,o),
(33,189,o),
(78,159,cs),
(171,97,o),
(232,262,o),
(303,284,cs),
(345,298,o),
(365,243,o),
(395,222,cs),
(422,203,o),
(487,161,o),
(520,156,cs),
(564,150,o),
(585,173,o),
(596,211,cs),
(615,275,o),
(600,320,o),
(559,372,cs),
(521,419,o),
(470,472,o),
(417,502,cs),
(398,512,o),
(366,519,o),
(296,509,cs)
);
}
);
width = 651;
}
);
note = asciicircum;
unicode = 94;
},
{
glyphname = underscore;
lastChange = "2024-02-24 20:33:13 +0000";
layers = (
{
layerId = m01;
shapes = (
{
closed = 1;
nodes = (
(70,200,l),
(44,169,o),
(34,96,o),
(66,67,cs),
(80,55,o),
(115,62,o),
(130,60,cs),
(165,56,o),
(199,44,o),
(234,41,cs),
(277,37,o),
(321,41,o),
(364,40,cs),
(460,37,o),
(568,23,o),
(660,56,cs),
(714,75,o),
(741,156,o),
(717,209,cs),
(700,248,o),
(657,242,o),
(619,242,cs),
(498,242,o),
(385,266,o),
(266,243,cs),
(241,238,o),
(216,236,o),
(191,237,cs),
(143,240,o),
(93,227,o),
(70,199,c)
);
}
);
width = 772;
}
);
note = underscore;
unicode = 95;
},
{
glyphname = grave;
lastChange = "2024-02-24 20:33:16 +0000";
layers = (
{
layerId = m01;
shapes = (
{
closed = 1;
nodes = (
(414,229,o),
(404,259,o),
(389,286,cs),
(369,325,o),
(344,342,o),
(309,370,cs),
(236,427,o),
(149,483,o),
(55,450,c),
(49,406,o),
(27,364,o),
(51,318,cs),
(82,256,o),
(169,200,o),
(216,150,cs),
(249,116,o),
(290,58,o),
(332,38,cs),
(439,-15,o),
(453,139,o),
(431,204,c)
);
}
);
width = 486;
}
);
note = grave;
unicode = 96;
},
{
glyphname = a;
kernRight = a;
layers = (
{
layerId = m01;
shapes = (
{
closed = 1;
nodes = (
(543.95,142.97,o),
(532.03,178.53,o),
(525.94,217.45,cs),
(512.12,305.87,o),
(500.17,394.61,o),
(484.86,482.77,cs),
(477.7,523.96,o),
(451.99,547.69,o),
(407.35,552.01,cs),
(364.47,556.17,o),
(343.69,536.6,o),
(333.91,498.24,cs),
(330.73,485.75,o),
(324.19,474.02,o),
(321.82,461.44,cs),
(318.13,441.88,o),
(306.38,435.66,o),
(288.06,431.66,cs),
(222.5,417.34,o),
(160.89,391.61,o),
(105.12,354.75,cs),
(73,333.52,o),
(34.69,312.9,o),
(40.61,262.96,cs),
(49.4,176.04,o),
(53.44,88.05,o),
(88.27,5.49,cs),
(100.57,-23.65,o),
(116.44,-44.16,o),
(151.88,-39.31,cs),
(206.8,-31.79,o),
(261.48,-24.06,o),
(314.6,-6.66,cs),
(351.42,5.4,o),
(390.35,9.75,o),
(423.01,-17.28,cs),
(458.87,-46.97,o),
(489.88,-36.59,o),
(518.64,-9.25,cs),
(539.93,10.99,o),
(559.85,33.2,o),
(577.26,56.84,cs),
(590.57,74.92,o),
(592.75,99.22,o),
(575.24,114.92,cs)
);
},
{
closed = 1;
nodes = (
(300.74,122.46,o),
(266.86,117.26,o),
(234.03,108.17,cs),
(203.36,99.68,o),
(189.32,108.27,o),
(188.92,140.65,cs),
(188.74,155.28,o),
(184.85,169.86,o),
(181.38,192.75,cs),
(180.95,194.62,o),
(186.88,198.99,o),
(194.64,203.89,cs),
(238.92,231.85,o),
(288.58,246.39,o),
(337.56,262.83,cs),
(352.84,267.96,o),
(355.06,259.75,o),
(356.26,248.24,cs),
(359.04,221.63,o),
(361.69,195.01,o),
(365.04,168.47,cs),
(368.07,144.46,o),
(353.52,134.81,o),
(333.95,130.24,cs)
);
}
);
width = 620;
}
);
note = a;
unicode = (97,224,225,226,227,228,229);
},
{
glyphname = b;
kernRight = b;
lastChange = "2024-02-24 20:33:19 +0000";
layers = (
{
layerId = m01;
shapes = (
{
closed = 1;
nodes = (
(614,333,o),
(610,336,o),
(607,339,cs),
(556,389,o),
(495,409,o),
(423,401,c),
(385,404,o),
(346,406,o),
(306,410,cs),
(263,414,o),
(244,440,o),
(249,482,cs),
(250,498,o),
(257,514,o),
(261,530,cs),
(272,572,o),
(263,614,o),
(229,637,cs),
(188,665,o),
(138,661,o),
(92,639,cs),
(41,616,o),
(24,571,o),
(40,518,cs),
(52,475,o),
(75,436,o),
(83,390,cs),
(100,291,o),
(89,190,o),
(104,91,cs),
(111,45,o),
(129,11,o),
(177,-6,cs),
(333,-60,o),
(483,-23,o),
(591,100,cs),
(632,147,o),
(646,275,o),
(616,329,cs)
);
},
{
closed = 1;
nodes = (
(472,168,o),
(454,146,o),
(411,152,cs),
(404,153,o),
(396,152,o),
(389,152,c),
(389,151,l),
(372,152,o),
(355,152,o),
(339,154,cs),
(314,158,o),
(282,154,o),
(285,196,cs),
(287,233,o),
(292,267,o),
(341,267,cs),
(366,267,o),
(391,270,o),
(415,268,cs),
(452,265,o),
(478,249,o),
(475,208,cs)
);
}
);
width = 670;
}
);
note = b;
unicode = 98;
},
{
glyphname = c;
layers = (
{
layerId = m01;
shapes = (
{
closed = 1;
nodes = (
(508.9,246.48,o),
(443.73,261.94,o),
(400.26,207.13,cs),
(360.76,157.33,o),
(321.62,167.87,o),
(275.32,191.21,cs),
(218.18,220.02,o),
(210.05,257.85,o),
(253.6,306.03,cs),
(286.25,342.15,o),
(332.33,343.17,o),
(375.18,353.08,cs),
(399.48,358.7,o),
(405.1,335.21,o),
(419.97,326.31,cs),
(452.93,306.58,o),
(484.36,303.63,o),
(513.89,331.48,cs),
(573.04,387.25,o),
(562.11,524.69,o),
(494.86,569.72,cs),
(465.81,589.17,o),
(431.73,592.39,o),
(414.72,560.46,cs),
(396.92,527.07,o),
(371.76,526.21,o),
(342.61,524.41,cs),
(320.47,523.04,o),
(298.28,521.65,o),
(276.3,518.8,cs),
(114.43,497.77,o),
(24.9,381.5,o),
(44.73,217.5,cs),
(49.67,176.66,o),
(52.27,136.43,o),
(76.03,98.6,cs),
(127.4,16.85,o),
(201,2.54,o),
(287.57,17.61,cs),
(322.61,23.71,o),
(352.38,17.41,o),
(383.75,-3.82,cs),
(410.14,-21.68,o),
(434.69,-56.22,o),
(476.36,-39.35,cs),
(524.36,-19.92,o),
(567.77,2.11,o),
(546.44,59.2,c),
(546.28,104.98,o),
(546.22,143.18,o),
(533.14,179.38,cs)
);
}
);
width = 603;
}
);
note = c;
unicode = (99,231);
},
{
glyphname = d;
kernRight = d;
layers = (
{
layerId = m01;
shapes = (
{
closed = 1;
nodes = (
(610.05,276.56,o),
(555.92,452.35,o),
(501.59,628.05,cs),
(490.47,664,o),
(472.03,688.19,o),
(423.58,686.52,cs),
(366.23,684.55,o),
(324.83,664.79,o),
(308.04,609.2,cs),
(298.02,576.02,o),
(297.6,541.64,o),
(297.22,507.45,cs),
(296.95,483.05,o),
(287.47,466.72,o),
(266.1,453.35,cs),
(220.67,424.93,o),
(175.85,395.24,o),
(132.91,363.22,cs),
(69.66,316.07,o),
(37.74,251.68,o),
(37,190.14,cs),
(36.88,57.07,o),
(85.92,-9.88,o),
(180.61,-31.55,cs),
(264.88,-50.84,o),
(344.17,-45.7,o),
(417.61,2.68,cs),
(438.39,16.37,o),
(447.52,11.02,o),
(459.06,-10.07,cs),
(480.87,-49.96,o),
(517.95,-66.44,o),
(562.28,-57.84,cs),
(635.57,-43.64,o),
(682.01,27.18,o),
(661.04,99.87,cs)
);
},
{
closed = 1;
nodes = (
(300.01,123.93,o),
(268.68,100.67,o),
(239.19,135.52,cs),
(228.24,148.46,o),
(230.02,166.92,o),
(229.53,190.35,cs),
(227.69,230.36,o),
(253.87,264.29,o),
(293.35,275.58,cs),
(336.08,287.8,o),
(370.71,253.81,o),
(384.65,218.77,cs),
(403.25,171.99,o),
(353.43,158.69,o),
(325.24,140.34,cs)
);
}
);
width = 701;
}
);
note = d;
unicode = 100;
},
{
glyphname = e;
kernRight = e;
layers = (
{
layerId = m01;
shapes = (
{
closed = 1;
nodes = (
(464.13,196.09,o),
(436.53,175.16,o),
(407.32,153.86,cs),
(383.15,136.23,o),
(355.32,141.33,o),
(337.81,163.49,cs),
(320.99,184.78,o),
(341.4,200.42,o),
(356.79,213.82,cs),
(397.23,249.04,o),
(439.56,282.31,o),
(471.73,325.98,cs),
(490.4,351.32,o),
(503.41,379.07,o),
(496.3,411.22,cs),
(480.1,484.54,o),
(382.8,562.28,o),
(298.64,562.38,c),
(226.29,550.57,o),
(157.1,513.66,o),
(98.88,454.1,cs),
(32.78,386.48,o),
(18.58,313.74,o),
(61.41,229.37,cs),
(90.95,171.19,o),
(113.26,111.12,o),
(126.59,47.32,cs),
(140.24,-17.98,o),
(200.2,-59.2,o),
(266.81,-48,cs),
(349.14,-34.17,o),
(428.3,-8.28,o),
(506.43,20.52,cs),
(549.11,36.25,o),
(571.28,72.98,o),
(584.53,112.41,cs),
(602.56,166.04,o),
(556.91,211.42,o),
(501.79,202.31,cs)
);
},
{
closed = 1;
nodes = (
(306.04,311.18,o),
(258.07,264.23,o),
(221.77,268,cs),
(196.52,270.63,o),
(176.8,284.14,o),
(177,311.5,cs),
(177.3,354.73,o),
(225.49,400.4,o),
(269.73,398.46,c),
(307.21,406.66,o),
(308.99,379.83,o),
(307.72,350.32,cs)
);
}
);
width = 620;
}
);
note = e;
unicode = (101,232,233,234,235);
},
{
glyphname = f;
layers = (
{
layerId = m01;
shapes = (
{
closed = 1;
nodes = (
(357.23,622.19,o),
(318.78,616.1,o),
(295.2,588.77,cs),
(262.59,550.98,o),
(220.51,526.18,o),
(183.55,494.58,cs),
(140.42,457.7,o),
(101.97,415.85,o),
(80.69,362.23,cs),
(21.19,212.34,o),
(43.76,65.74,o),
(106.47,-76.38,cs),
(126.49,-121.75,o),
(171.22,-138.91,o),
(221.06,-130.07,cs),
(265.45,-122.2,o),
(305.56,-105.63,o),
(313.05,-53.3,cs),
(319.36,-9.23,o),
(307.14,33.26,o),
(295.66,74.96,cs),
(287.19,105.73,o),
(290.42,122.42,o),
(324.61,134.58,cs),
(378.43,153.72,o),
(415.06,192.46,o),
(419.46,252.75,cs),
(422.71,297.4,o),
(392.78,323.15,o),
(349.29,313.79,cs),
(331.97,310.06,o),
(320.2,312.47,o),
(312.28,328.04,cs),
(306.62,339.17,o),
(294.56,351.48,o),
(304.77,363.45,cs),
(321.71,383.31,o),
(345.48,391.96,o),
(371.67,391,cs),
(437.01,388.61,o),
(464.73,414.6,o),
(466.17,480.56,cs),
(467.33,534.03,o),
(433.64,599.68,o),
(389.83,612.59,cs)
);
}
);
width = 497;
}
);
note = f;
unicode = 102;
},
{
glyphname = g;
lastChange = "2024-02-24 20:33:23 +0000";
layers = (
{
layerId = m01;
shapes = (
{
closed = 1;
nodes = (
(502,455,o),
(447,480,o),
(430,462,cs),
(404,436,o),
(379,438,o),
(349,449,cs),
(319,460,o),
(287,462,o),
(261,462,cs),
(159,467,o),
(112,427,o),
(87,324,cs),
(72,259,o),
(83,239,o),
(142,197,cs),
(162,182,o),
(184,171,o),
(203,155,cs),
(226,138,o),
(240,113,o),
(224,87,cs),
(206,56,o),
(180,28,o),
(137,37,cs),
(105,43,o),
(76,50,o),
(53,16,cs),
(27,-23,o),
(31,-58,o),
(60,-93,cs),
(126,-175,o),
(276,-180,o),
(345,-102,cs),
(361,-83,o),
(371,-60,o),
(383,-38,cs),
(435,58,o),
(494,150,o),
(528,255,cs),
(547,313,o),
(560,370,o),
(522,427,cs)
);
},
{
closed = 1;
nodes = (
(242,224,o),
(218,244,o),
(216,280,cs),
(214,316,o),
(246,315,o),
(275,319,c),
(303,304,o),
(352,326,o),
(364,277,cs),
(371,251,o),
(324,224,o),
(279,224,cs)
);
}
);
width = 580;
}
);
note = g;
unicode = 103;
},
{
glyphname = h;
kernRight = h;
lastChange = "2024-02-24 20:33:26 +0000";
layers = (
{
layerId = m01;
shapes = (
{
closed = 1;
nodes = (
(551,401,o),
(523,421,o),
(482,423,cs),
(446,425,o),
(410,428,o),
(375,433,cs),
(298,444,o),
(271,471,o),
(261,547,cs),
(258,565,o),
(258,582,o),
(257,600,cs),
(254,651,o),
(234,669,o),
(183,669,cs),
(112,668,o),
(75,646,o),
(71,599,cs),
(65,520,o),
(61,441,o),
(58,380,cs),
(53,288,o),
(58,214,o),
(65,140,cs),
(69,107,o),
(71,73,o),
(79,42,cs),
(94,-15,o),
(147,-49,o),
(207,-41,cs),
(256,-34,o),
(264,9,o),
(272,48,cs),
(278,79,o),
(281,111,o),
(283,142,cs),
(285,183,o),
(306,211,o),
(338,233,cs),
(356,246,o),
(372,243,o),
(390,235,cs),
(408,226,o),
(419,215,o),
(418,192,cs),
(417,143,o),
(422,94,o),
(434,47,cs),
(445,3,o),
(490,-30,o),
(537,-26,cs),
(575,-22,o),
(603,11,o),
(606,40,cs),
(621,151,o),
(617,262,o),
(567,366,cs)
);
}
);
width = 657;
}
);
note = h;
unicode = 104;
},
{
glyphname = i;
layers = (
{
layerId = m01;
shapes = (
{
closed = 1;
nodes = (
(204.08,412.33,o),
(143.33,412.45,o),
(89.41,379.05,cs),
(39.11,347.89,o),
(29.45,300.8,o),
(75.09,263.92,cs),
(110.07,235.65,o),
(114.86,206.79,o),
(103.87,168.76,cs),
(97.52,146.8,o),
(94.82,124.2,o),
(87.15,102.08,cs),
(69.46,51.03,o),
(116.6,-5.69,o),
(179.1,-5.46,c),
(224.66,2.57,o),
(264.01,17.77,o),
(288.47,71.62,cs),
(327.59,157.75,o),
(312.04,247.3,o),
(322.36,334.83,cs),
(326.09,366.47,o),
(298.53,403.27,o),
(262.68,406.71,cs)
);
},
{
closed = 1;
nodes = (
(194.91,473.1,o),
(305.09,537.97,o),
(305.94,578.4,cs),
(307.13,635.06,o),
(271.72,682.97,o),
(227.16,684.98,cs),
(104.89,690.5,o),
(45.84,650.4,o),
(43.01,559.92,cs),
(41.95,526.04,o),
(93.18,477.42,o),
(131.66,475.78,cs)
);
}
);
width = 372;
}
);
note = i;
unicode = (105,236,237,238,239);
},
{
glyphname = j;
kernRight = j;
lastChange = "2024-02-24 20:33:29 +0000";
layers = (
{
layerId = m01;
shapes = (
{
closed = 1;
nodes = (
(456,160,o),
(437,192,o),
(417,223,cs),
(395,256,o),
(385,286,o),
(403,328,cs),
(431,394,o),
(390,439,o),
(319,426,cs),
(263,416,o),
(208,397,o),
(156,373,c),
(147,370,o),
(139,362,o),
(133,354,cs),
(105,316,o),
(126,226,o),
(170,191,cs),
(202,167,o),
(222,86,o),
(201,42,cs),
(182,5,o),
(150,36,o),
(125,37,cs),
(55,40,o),
(14,-11,o),
(34,-83,cs),
(53,-154,o),
(90,-178,o),
(206,-180,c),
(312,-187,o),
(398,-116,o),
(469,-21,cs),
(503,24,o),
(503,78,o),
(475,128,cs)
);
},
{
closed = 1;
nodes = (
(162,471,o),
(204,488,o),
(248,498,cs),
(321,513,o),
(332,580,o),
(309,633,cs),
(299,657,o),
(282,668,o),
(257,664,cs),
(197,653,o),
(139,635,o),
(82,612,cs),
(32,592,o),
(41,552,o),
(47,515,cs),
(53,476,o),
(85,471,o),
(117,467,c)
);
}
);
width = 531;
}
);
note = j;
unicode = 106;
},
{
glyphname = k;
kernRight = k;
lastChange = "2024-02-24 20:33:31 +0000";
layers = (
{
layerId = m01;
shapes = (
{
closed = 1;
nodes = (
(490,159,o),
(481,168,o),
(471,174,cs),
(450,187,o),
(450,202,o),
(463,220,cs),
(485,249,o),
(508,276,o),
(528,306,cs),
(553,345,o),
(544,382,o),
(512,411,cs),
(480,439,o),
(443,436,o),
(410,412,cs),
(391,399,o),
(376,381,o),
(360,364,cs),
(345,348,o),
(330,358,o),
(314,361,cs),
(303,364,o),
(298,370,o),
(301,381,cs),
(312,431,o),
(308,483,o),
(325,532,cs),
(348,601,o),
(322,660,o),
(263,666,cs),
(199,674,o),
(139,658,o),
(92,611,cs),
(50,570,o),
(50,522,o),
(89,479,cs),
(100,467,o),
(101,456,o),
(99,441,cs),
(85,344,o),
(75,247,o),
(70,149,cs),
(70,136,o),
(70,122,o),
(63,112,cs),
(12,35,o),
(62,-44,o),
(162,-41,cs),
(248,-42,o),
(277,-5,o),
(266,79,cs),
(262,107,o),
(271,137,o),
(274,167,c),
(299,156,o),
(302,128,o),
(319,110,cs),
(325,104,o),
(329,97,o),
(335,91,cs),
(365,58,o),
(394,23,o),
(442,18,cs),
(486,14,o),
(520,32,o),
(537,71,cs),
(552,109,o),
(527,132,o),
(499,152,cs)
);
}
);
width = 584;
}
);
note = k;
unicode = 107;
},
{
glyphname = l;
kernRight = l;
lastChange = "2024-02-24 20:33:33 +0000";
layers = (
{
layerId = m01;
shapes = (
{
closed = 1;
nodes = (
(467,224,o),
(437,219,o),
(408,216,cs),
(363,212,o),
(342,233,o),
(332,273,cs),
(305,383,o),
(277,493,o),
(251,604,cs),
(242,639,o),
(224,653,o),
(188,648,cs),
(119,638,o),
(57,580,o),
(36,506,cs),
(24,462,o),
(33,428,o),
(76,406,cs),
(94,397,o),
(98,384,o),
(99,364,cs),
(101,275,o),
(112,187,o),
(136,101,cs),
(155,31,o),
(224,-21,o),
(300,-22,cs),
(303,-22,o),
(310,-23,o),
(316,-21,cs),
(395,7,o),
(465,50,o),
(519,113,cs),
(546,144,o),
(531,187,o),
(495,208,cs)
);
}
);
width = 561;
}
);
note = l;
unicode = 108;
},
{
glyphname = m;
kernRight = m;
layers = (
{
layerId = m01;
shapes = (
{
closed = 1;
nodes = (
(801.53,216.98,o),
(794.34,247.56,o),
(791.78,287.58,cs),
(790.9,301.36,o),
(787.71,315,o),
(785.39,328.67,cs),
(768.33,429.44,o),
(700.56,477.27,o),
(603.75,445.61,cs),
(542.75,425.66,o),
(489.32,427.4,o),
(433.35,454.7,cs),
(384.63,478.47,o),
(338.03,472.65,o),
(296.18,437.57,cs),
(284.53,427.8,o),
(273.04,427.43,o),
(260.36,433.56,cs),
(196.84,464.23,o),
(141.27,456.21,o),
(87.74,407.47,cs),
(50.09,373.19,o),
(39.99,330.27,o),
(73.44,290.01,cs),
(101.04,256.79,o),
(107.38,222.09,o),
(92.19,181.66,cs),
(72.95,130.43,o),
(64.06,76.52,o),
(52.53,23.17,cs),
(28.86,-86.34,o),
(82.66,-117.02,o),
(187.88,-126.49,c),
(198.95,-125.66,o),
(210.08,-125.3,o),
(221.08,-123.88,cs),
(251.92,-119.91,o),
(283.1,-114.56,o),
(297.17,-81.93,cs),
(310.76,-50.44,o),
(296.92,-24.58,o),
(275.42,-1.53,cs),
(269.71,4.59,o),
(264.45,11.41,o),
(267.3,20.77,cs),
(281.04,65.75,o),
(294.34,110.89,o),
(308.98,155.58,cs),
(313.18,168.41,o),
(323.32,177.4,o),
(338.5,176.52,cs),
(353.46,175.66,o),
(362.23,165.5,o),
(366.55,152.98,cs),
(370.39,141.84,o),
(370.11,129.36,o),
(372.61,117.68,cs),
(379.93,83.59,o),
(394.66,52.22,o),
(429.89,42.07,cs),
(467.07,31.36,o),
(486.54,59.95,o),
(503.74,87.04,cs),
(515.13,104.98,o),
(524.2,124.53,o),
(536.74,141.56,cs),
(553.14,163.84,o),
(571.21,189.71,o),
(602.17,186.41,cs),
(632.16,183.22,o),
(631.2,151.08,o),
(638.79,129.83,cs),
(653.29,89.26,o),
(664.01,40.48,o),
(717.63,44.98,cs),
(769.18,49.31,o),
(822.41,62.21,o),
(864.84,95.92,cs),
(901.98,125.43,o),
(895.33,189.88,o),
(850.12,202.94,cs)
);
}
);
width = 918;
}
);
note = m;
unicode = 109;
},
{
glyphname = n;
kernRight = n;
lastChange = "2024-02-24 20:33:36 +0000";
layers = (
{
layerId = m01;
shapes = (
{
closed = 1;
nodes = (
(627,70,o),
(624,76,o),
(627,85,cs),
(644,146,o),
(638,210,o),
(644,272,cs),
(647,302,o),
(640,329,o),
(624,354,cs),
(565,450,o),
(451,480,o),
(349,426,cs),
(324,413,o),
(305,409,o),
(284,435,cs),
(237,492,o),
(176,499,o),
(113,458,cs),
(60,423,o),
(61,363,o),
(117,334,cs),
(135,324,o),
(136,314,o),
(134,296,cs),
(126,238,o),
(110,187,o),
(63,145,cs),
(22,108,o),
(30,44,o),
(74,26,cs),
(119,7,o),
(170,9,o),
(208,38,cs),
(267,84,o),
(310,144,o),
(332,218,cs),
(340,248,o),
(360,271,o),
(392,274,cs),
(427,276,o),
(446,254,o),
(457,223,cs),
(481,154,o),
(463,98,o),
(402,54,cs),
(378,38,o),
(352,20,o),
(359,-14,cs),
(366,-48,o),
(395,-61,o),
(424,-66,cs),
(470,-75,o),
(516,-80,o),
(554,-85,c),
(602,-82,o),
(643,-76,o),
(662,-34,cs),
(679,4,o),
(661,36,o),
(634,63,cs)
);
}
);
width = 711;
}
);
note = n;
unicode = (110,241);
},
{
glyphname = o;
kernRight = o;
lastChange = "2024-02-24 20:33:39 +0000";
layers = (
{
layerId = m01;
shapes = (
{
closed = 1;
nodes = (
(554,423,o),
(388,495,o),
(286,470,cs),
(237,458,o),
(192,438,o),
(148,414,cs),
(47,359,o),
(9,179,o),
(71,81,cs),
(123,-1,o),
(195,-25,o),
(285,-20,c),
(343,-21,o),
(399,-9,o),
(454,4,cs),
(461,5,o),
(468,10,o),
(473,14,cs),
(556,89,o),
(568,188,o),
(562,291,cs)
);
},
{
closed = 1;
nodes = (
(369,138,o),
(347,121,o),
(317,119,cs),
(289,118,o),
(272,139,o),
(261,162,cs),
(238,208,o),
(231,257,o),
(253,306,cs),
(265,334,o),
(285,351,o),
(317,350,cs),
(348,349,o),
(364,328,o),
(375,303,cs),
(387,277,o),
(392,250,o),
(392,222,cs),
(392,202,o),
(391,183,o),
(382,165,cs)
);
}
);
width = 608;
}
);
note = o;
unicode = (111,242,243,244,245,246,248);
},
{
glyphname = p;
lastChange = "2024-02-24 20:33:41 +0000";
layers = (
{
layerId = m01;
shapes = (
{
closed = 1;
nodes = (
(332,456,o),
(319,457,o),
(306,456,cs),
(210,448,o),
(124,418,o),
(52,351,cs),
(12,314,o),
(34,274,o),
(44,236,cs),
(50,212,o),
(79,203,o),
(103,206,cs),
(137,209,o),
(145,189,o),
(149,164,cs),
(155,119,o),
(159,74,o),
(166,29,cs),
(173,-20,o),
(179,-70,o),
(208,-113,cs),
(244,-166,o),
(312,-185,o),
(385,-162,cs),
(438,-145,o),
(455,-116,o),
(453,-42,cs),
(453,-29,o),
(453,-16,o),
(451,-3,cs),
(446,22,o),
(455,37,o),
(476,52,cs),
(520,82,o),
(561,117,o),
(575,171,cs),
(612,320,o),
(542,460,o),
(345,456,cs)
);
},
{
closed = 1;
nodes = (
(416,165,o),
(373,161,o),
(339,159,cs),
(287,155,o),
(289,200,o),
(287,233,cs),
(284,286,o),
(325,282,o),
(367,284,c),
(416,291,o),
(417,249,o),
(417,214,cs)
);
}
);
width = 621;
}
);
note = p;
unicode = 112;
},
{
glyphname = q;
kernRight = q;
lastChange = "2024-02-24 20:33:43 +0000";
layers = (
{
layerId = m01;
shapes = (
{
closed = 1;
nodes = (
(405,494,o),
(394,496,o),
(390,508,cs),
(366,566,o),
(300,579,o),
(262,529,cs),
(233,492,o),
(196,470,o),
(159,445,cs),
(68,382,o),
(37,295,o),
(38,194,cs),
(38,144,o),
(55,103,o),
(93,65,cs),
(132,28,o),
(171,29,o),
(201,25,cs),
(300,12,o),
(378,20,o),
(405,-89,cs),
(424,-163,o),
(522,-189,o),
(589,-145,cs),
(610,-131,o),
(627,-113,o),
(645,-95,cs),
(669,-72,o),
(681,-46,o),
(663,-13,cs),
(646,18,o),
(624,34,o),
(584,36,cs),
(505,39,o),
(488,55,o),
(489,140,cs),
(490,156,o),
(495,172,o),
(499,188,cs),
(511,235,o),
(523,281,o),
(524,340,c),
(533,410,o),
(485,456,o),
(414,490,cs)
);
},
{
closed = 1;
nodes = (
(365,309,o),
(375,283,o),
(376,258,cs),
(379,182,o),
(348,144,o),
(286,143,cs),
(240,143,o),
(215,170,o),
(216,222,cs),
(216,275,o),
(262,312,o),
(331,310,cs)
);
}
);
width = 699;
}
);
note = q;
unicode = 113;
},
{
glyphname = r;
lastChange = "2024-02-24 20:33:46 +0000";
layers = (
{
layerId = m01;
shapes = (
{
closed = 1;
nodes = (
(563,465,o),
(555,471,o),
(546,476,cs),
(505,495,o),
(463,500,o),
(420,483,cs),
(382,469,o),
(344,457,o),
(306,446,cs),
(269,435,o),
(236,441,o),
(207,468,cs),
(179,493,o),
(145,498,o),
(115,474,cs),
(85,451,o),
(62,419,o),
(48,384,cs),
(32,342,o),
(48,300,o),
(92,292,cs),
(140,283,o),
(143,252,o),
(144,212,c),
(141,170,o),
(134,131,o),
(85,107,cs),
(32,81,o),
(32,23,o),
(84,-4,cs),
(132,-29,o),
(186,-44,o),
(238,-63,cs),
(256,-70,o),
(274,-68,o),
(287,-50,cs),
(304,-28,o),
(329,-6,o),
(311,23,cs),
(271,89,o),
(283,150,o),
(313,215,cs),
(353,300,o),
(352,301,o),
(442,266,cs),
(487,248,o),
(538,261,o),
(562,295,cs),
(593,340,o),
(598,428,o),
(570,458,cs)
);
}
);
width = 620;
}
);
note = r;
unicode = 114;
},
{
glyphname = s;
lastChange = "2024-02-24 20:33:48 +0000";
layers = (
{
layerId = m01;
shapes = (
{
closed = 1;
nodes = (
(459,555,o),
(416,606,o),
(361,644,cs),
(292,691,o),
(236,670,o),
(211,591,cs),
(203,568,o),
(191,555,o),
(167,547,cs),
(125,534,o),
(84,513,o),
(73,466,cs),
(57,399,o),
(103,320,o),
(168,298,cs),
(201,287,o),
(228,266,o),
(251,240,cs),
(263,226,o),
(269,210,o),
(262,191,cs),
(256,171,o),
(244,157,o),
(223,152,cs),
(196,147,o),
(182,165,o),
(168,183,cs),
(133,226,o),
(72,216,o),
(48,166,cs),
(14,94,o),
(92,-61,o),
(201,-40,c),
(265,-35,o),
(325,-2,o),
(373,49,cs),
(415,93,o),
(425,141,o),
(404,199,cs),
(385,254,o),
(355,300,o),
(314,340,cs),
(299,355,o),
(277,375,o),
(300,400,cs),
(320,421,o),
(345,417,o),
(368,402,cs),
(395,385,o),
(422,380,o),
(448,400,cs),
(479,422,o),
(493,451,o),
(480,489,cs)
);
}
);
width = 517;
}
);
note = s;
unicode = 115;
},
{
glyphname = t;
kernRight = t;
lastChange = "2024-02-24 20:33:51 +0000";
layers = (
{
layerId = m01;
shapes = (
{
closed = 1;
nodes = (
(416,199,o),
(404,225,o),
(399,262,cs),
(397,275,o),
(393,289,o),
(389,302,cs),
(377,335,o),
(384,360,o),
(415,380,cs),
(447,400,o),
(442,432,o),
(433,462,cs),
(424,489,o),
(405,522,o),
(377,515,cs),
(321,502,o),
(300,533,o),
(278,572,cs),
(258,607,o),
(227,618,o),
(188,609,cs),
(105,591,o),
(86,563,o),
(105,479,cs),
(109,460,o),
(110,450,o),
(88,440,cs),
(41,419,o),
(24,371,o),
(37,315,cs),
(49,267,o),
(85,254,o),
(128,257,cs),
(175,260,o),
(195,229,o),
(212,196,cs),
(235,152,o),
(255,106,o),
(282,63,cs),
(303,30,o),
(326,7,o),
(364,17,c),
(396,16,o),
(422,16,o),
(445,35,cs),
(512,90,o),
(519,157,o),
(456,183,cs)
);
}
);
width = 533;
}
);
note = t;
unicode = 116;
},
{
glyphname = u;
lastChange = "2024-02-24 20:33:53 +0000";
layers = (
{
layerId = m01;
shapes = (
{
closed = 1;
nodes = (
(655,346,o),
(672,368,o),
(681,393,cs),
(693,426,o),
(685,456,o),
(650,467,cs),
(582,489,o),
(512,494,o),
(442,479,cs),
(403,470,o),
(387,439,o),
(404,404,cs),
(435,342,o),
(429,279,o),
(417,214,cs),
(413,191,o),
(411,170,o),
(378,166,cs),
(335,161,o),
(281,171,o),
(270,198,cs),
(255,235,o),
(248,289,o),
(274,331,cs),
(311,393,o),
(295,477,o),
(235,487,cs),
(189,495,o),
(142,504,o),
(94,491,cs),
(52,481,o),
(20,406,o),
(47,372,cs),
(78,334,o),
(81,292,o),
(79,247,cs),
(76,198,o),
(70,144,o),
(107,107,cs),
(173,42,o),
(252,-1,o),
(352,22,cs),
(384,30,o),
(423,44,o),
(451,19,cs),
(496,-22,o),
(546,-15,o),
(597,-8,cs),
(630,-3,o),
(661,8,o),
(674,43,cs),
(685,70,o),
(678,99,o),
(657,113,cs),
(619,139,o),
(614,174,o),
(612,213,cs),
(611,230,o),
(606,247,o),
(600,264,cs),
(587,299,o),
(579,328,o),
(630,340,cs)
);
}
);
width = 727;
}
);
note = u;
unicode = (117,249,250,251,252);
},
{
glyphname = v;
lastChange = "2024-02-24 20:33:55 +0000";
layers = (
{
layerId = m01;
shapes = (
{
closed = 1;
nodes = (
(644,522,o),
(629,566,o),
(566,570,cs),
(553,570,o),
(540,580,o),
(528,586,cs),
(486,604,o),
(446,604,o),
(412,571,cs),
(378,538,o),
(378,499,o),
(399,459,cs),
(407,445,o),
(412,432,o),
(402,415,cs),
(377,366,o),
(353,316,o),
(329,266,c),
(319,251,l),
(315,256,o),
(310,260,o),
(308,266,cs),
(286,318,o),
(261,367,o),
(275,429,cs),
(288,484,o),
(219,538,o),
(173,516,cs),
(127,493,o),
(86,463,o),
(52,424,cs),
(9,372,o),
(28,317,o),
(95,306,cs),
(112,303,o),
(120,296,o),
(125,280,cs),
(144,228,o),
(165,177,o),
(184,125,cs),
(211,56,o),
(254,13,o),
(333,34,c),
(384,23,o),
(421,34,o),
(445,85,cs),
(483,169,o),
(535,246,o),
(566,334,cs),
(571,349,o),
(579,361,o),
(593,367,cs),
(640,387,o),
(658,424,o),
(651,472,cs)
);
}
);
width = 684;
}
);
note = v;
unicode = 118;
},
{
glyphname = w;
lastChange = "2024-02-24 20:33:57 +0000";
layers = (
{
layerId = m01;
shapes = (
{
closed = 1;
nodes = (
(824,439,o),
(817,489,o),
(768,530,cs),
(741,553,o),
(710,557,o),
(683,559,c),
(604,559,o),
(585,533,o),
(605,463,cs),
(611,443,o),
(614,424,o),
(608,405,cs),
(599,377,o),
(605,332,o),
(578,325,cs),
(542,315,o),
(533,360,o),
(516,385,cs),
(483,430,o),
(429,432,o),
(395,388,cs),
(361,345,o),
(342,295,o),
(321,246,c),
(318,241,o),
(315,223,o),
(308,235,cs),
(289,265,o),
(266,299,o),
(282,335,cs),
(294,362,o),
(303,388,o),
(310,416,cs),
(326,477,o),
(289,529,o),
(226,535,cs),
(142,544,o),
(64,487,o),
(35,397,cs),
(21,350,o),
(36,318,o),
(82,300,cs),
(138,279,o),
(192,159,o),
(170,105,cs),
(142,37,o),
(162,-7,o),
(232,-31,cs),
(251,-38,o),
(272,-44,o),
(293,-46,cs),
(352,-51,o),
(391,-22,o),
(382,34,cs),
(373,94,o),
(399,137,o),
(419,185,cs),
(423,195,o),
(421,213,o),
(438,211,cs),
(453,210,o),
(461,197,o),
(466,183,cs),
(476,152,o),
(489,121,o),
(493,88,cs),
(498,51,o),
(514,19,o),
(554,10,cs),
(616,-5,o),
(659,30,o),
(696,73,cs),
(720,100,o),
(720,133,o),
(702,166,cs),
(695,179,o),
(681,192,o),
(689,209,cs),
(717,271,o),
(728,341,o),
(780,393,cs)
);
}
);
width = 838;
}
);
note = w;
unicode = 119;
},
{
glyphname = x;
kernRight = x;
lastChange = "2024-02-24 20:33:59 +0000";
layers = (
{
layerId = m01;
shapes = (
{
closed = 1;
nodes = (
(487,186,o),
(444,205,o),
(437,238,cs),
(429,277,o),
(461,299,o),
(485,323,cs),
(490,328,o),
(497,332,o),
(503,335,cs),
(581,383,o),
(582,425,o),
(512,484,cs),
(476,514,o),
(443,499,o),
(411,488,cs),
(386,479,o),
(391,450,o),
(391,427,cs),
(391,422,o),
(392,417,o),
(391,413,cs),
(381,377,o),
(369,344,o),
(327,334,cs),
(283,324,o),
(279,361,o),
(266,387,cs),
(257,403,o),
(250,420,o),
(243,438,cs),
(230,471,o),
(204,479,o),
(173,470,cs),
(133,457,o),
(99,433,o),
(76,396,cs),
(64,375,o),
(65,356,o),
(82,337,cs),
(104,314,o),
(130,297,o),
(158,283,cs),
(180,272,o),
(193,251,o),
(195,230,cs),
(197,212,o),
(172,206,o),
(156,200,cs),
(128,188,o),
(103,171,o),
(79,152,cs),
(29,112,o),
(23,72,o),
(60,32,cs),
(117,-29,o),
(162,-32,o),
(209,16,cs),
(239,47,o),
(251,88,o),
(272,123,cs),
(293,157,o),
(314,157,o),
(332,123,cs),
(345,98,o),
(355,73,o),
(367,48,cs),
(385,12,o),
(412,-10,o),
(453,-14,cs),
(520,-20,o),
(601,46,o),
(607,113,cs),
(612,169,o),
(592,190,o),
(536,188,cs)
);
}
);
width = 645;
}
);
note = x;
unicode = 120;
},
{
glyphname = y;
lastChange = "2024-02-24 20:34:13 +0000";
layers = (
{
layerId = m01;
shapes = (
{
closed = 1;
nodes = (
(516,454,o),
(470,470,o),
(423,443,cs),
(381,419,o),
(376,380,o),
(386,334,c),
(384,323,o),
(382,309,o),
(378,296,cs),
(370,260,o),
(353,246,o),
(319,273,cs),
(287,299,o),
(275,331,o),
(286,370,cs),
(298,411,o),
(278,431,o),
(242,437,cs),
(174,449,o),
(83,389,o),
(66,321,cs),
(56,282,o),
(58,248,o),
(110,240,cs),
(143,235,o),
(166,216,o),
(186,188,cs),
(210,156,o),
(237,126,o),
(275,108,cs),
(287,102,o),
(311,106,o),
(304,80,cs),
(299,57,o),
(292,39,o),
(262,39,cs),
(241,39,o),
(220,35,o),
(200,29,cs),
(149,12,o),
(139,-33,o),
(135,-78,cs),
(133,-109,o),
(154,-127,o),
(182,-136,cs),
(285,-168,o),
(381,-126,o),
(427,-28,cs),
(452,26,o),
(466,85,o),
(483,143,cs),
(500,201,o),
(518,257,o),
(566,301,cs),
(617,348,o),
(611,399,o),
(557,430,cs)
);
}
);
width = 626;
}
);
note = y;
unicode = (121,253,255);
},
{
glyphname = z;
kernRight = z;
lastChange = "2024-02-24 20:34:16 +0000";
layers = (
{
layerId = m01;
shapes = (
{
closed = 1;
nodes = (
(520,305,o),
(498,306,o),
(478,281,cs),
(460,260,o),
(440,241,o),
(415,228,cs),
(400,220,o),
(384,213,o),
(369,227,cs),
(353,241,o),
(360,258,o),
(367,273,cs),
(384,312,o),
(406,349,o),
(419,389,cs),
(440,454,o),
(422,487,o),
(353,497,cs),
(270,510,o),
(186,501,o),
(103,482,cs),
(55,470,o),
(33,436,o),
(34,382,cs),
(35,333,o),
(77,271,o),
(119,263,cs),
(169,253,o),
(195,287,o),
(216,325,cs),
(224,339,o),
(232,351,o),
(247,341,cs),
(263,330,o),
(258,316,o),
(246,303,cs),
(209,259,o),
(182,209,o),
(160,155,cs),
(154,141,o),
(153,128,o),
(158,112,cs),
(174,62,o),
(222,36,o),
(307,37,cs),
(374,35,o),
(444,56,o),
(513,81,cs),
(601,114,o),
(616,230,o),
(543,287,cs)
);
}
);
width = 624;
}
);
note = z;
unicode = 122;
},
{
glyphname = braceleft;
layers = (
{
layerId = m01;
shapes = (
{
closed = 1;
nodes = (
(429.47,101.79,o),
(328.78,58.88,o),
(324.86,142.61,cs),
(322.7,188.69,o),
(317.89,244.44,o),
(308.47,288.32,cs),
(303.01,313.75,o),
(289.3,321.91,o),
(263.44,330.56,c),
(265.75,351.94,o),
(297.96,368.62,o),
(311.68,385.08,cs),
(332.13,409.6,o),
(326.35,432.9,o),
(332.61,463.48,cs),
(339.52,497.26,o),
(351.32,507.44,o),
(364.76,539.36,c),
(375.53,543.55,o),
(413.96,567.91,o),
(423.41,574.36,cs),
(456.22,596.76,o),
(419.94,679.74,o),
(388.16,704.29,cs),
(347.07,736.02,o),
(220.53,684.23,o),
(189.85,651.58,cs),
(165.2,625.34,o),
(177.7,590.58,o),
(179.51,559.08,cs),
(181.96,516.5,o),
(185.75,477.65,o),
(194.14,437.82,c),
(154.58,427.26,o),
(64.98,388.04,o),
(82.17,337.62,cs),
(96.19,296.51,o),
(150.21,276.65,o),
(168.22,235.85,cs),
(177.23,215.45,o),
(172.63,209.93,o),
(165.1,187.05,cs),
(154.01,153.35,o),
(151.05,118.71,o),
(157.01,83.46,cs),
(161.53,56.68,o),
(167.71,34.61,o),
(192.61,18.92,cs),
(205.99,10.49,o),
(230.09,-0.77,o),
(244.88,-6.25,cs),
(262,-12.58,o),
(287.44,-21.91,o),
(301.73,-33.92,cs),
(347.48,-72.38,o),
(379.46,-76.1,o),
(403.64,-52.71,cs),
(423.63,-33.37,o),
(466.38,6.01,o),
(457.08,30.13,cs)
);
}
);
width = 539;
}
);
note = braceleft;
unicode = 123;
},
{
glyphname = verticalbar;
layers = (
{
layerId = m01;
shapes = (
{
closed = 1;
nodes = (
(55.59,555.88,o),
(94.48,463.56,o),
(89.74,438.83,cs),
(67,320.33,o),
(121.05,170.15,o),
(66.45,101.38,cs),
(42.52,71.24,o),
(85.38,5.02,o),
(124.68,-12.17,cs),
(178.38,-35.67,o),
(258.51,-8.34,o),
(277.75,45.81,cs),
(288.21,75.26,o),
(262.96,128.6,o),
(265.67,160.5,cs),
(271.4,227.78,o),
(271.28,273.93,o),
(269.13,338.94,cs),
(267.7,382.06,o),
(267.57,430.59,o),
(263.74,473.57,cs),
(260.62,508.63,o),
(313,517.41,o),
(308.96,552.38,cs),
(307.18,567.83,o),
(276.73,625.94,o),
(265,639.15,cs),
(236.22,671.56,o),
(159.37,669.22,o),
(120.08,665.43,cs),
(81.88,661.74,o),
(51.48,628.83,o),
(54.18,581.02,cs)
);
}
);
width = 360;
}
);
note = verticalbar;
unicode = 124;
},
{
glyphname = braceright;
layers = (
{
layerId = m01;
shapes = (
{
closed = 1;
nodes = (
(158.93,-76.1,o),
(190.91,-72.38,o),
(236.66,-33.92,cs),
(250.95,-21.91,o),
(276.39,-12.58,o),
(293.51,-6.25,cs),
(308.31,-0.77,o),
(332.41,10.49,o),
(345.78,18.92,cs),
(370.67,34.6,o),
(376.85,56.67,o),
(381.38,83.46,cs),
(387.34,118.71,o),
(384.38,153.35,o),
(373.29,187.05,cs),
(365.76,209.93,o),
(361.17,215.45,o),
(370.17,235.85,cs),
(388.19,276.65,o),
(442.2,296.51,o),
(456.22,337.62,cs),
(473.42,388.04,o),
(383.82,427.25,o),
(344.25,437.82,c),
(352.63,477.65,o),
(356.43,516.5,o),
(358.88,559.08,cs),
(360.69,590.58,o),
(373.19,625.34,o),
(348.54,651.58,cs),
(317.86,684.23,o),
(191.32,736.03,o),
(150.23,704.29,cs),
(118.45,679.74,o),
(82.16,596.76,o),
(114.98,574.36,cs),
(124.43,567.91,o),
(162.85,543.54,o),
(173.63,539.36,c),
(187.07,507.44,o),
(198.87,497.26,o),
(205.78,463.48,cs),
(212.04,432.9,o),
(206.26,409.6,o),
(226.71,385.08,cs),
(240.43,368.63,o),
(272.64,351.95,o),
(274.95,330.56,c),
(249.09,321.91,o),
(235.38,313.75,o),
(229.92,288.32,cs),
(220.5,244.45,o),
(215.69,188.7,o),
(213.53,142.61,cs),
(209.61,58.88,o),
(108.91,101.79,o),
(81.3,30.13,cs),
(72,6.01,o),
(114.76,-33.37,o),
(134.74,-52.71,cs)
);
}
);
width = 539;
}
);
note = braceright;
unicode = 125;
},
{
glyphname = asciitilde;
layers = (
{
layerId = m01;
shapes = (
{
closed = 1;
nodes = (
(444.54,433.92,o),
(387.27,497.24,o),
(335.81,505.07,cs),
(237.4,520.05,o),
(212.7,497.44,o),
(148.09,424.94,cs),
(103.61,375.03,o),
(28.18,309.37,o),
(46.95,232.91,cs),
(65.41,157.75,o),
(145.6,139.14,o),
(214.14,157.88,cs),
(271.32,173.52,o),
(275.38,270.52,o),
(337.49,266.39,cs),
(417.9,261.04,o),
(505.36,141.49,o),
(594.43,150.21,cs),
(712.43,161.77,o),
(717.1,285.38,o),
(725.89,384.18,cs),
(732.85,462.36,o),
(721.05,480.02,o),
(635.21,480.75,cs),
(585.92,481.17,o),
(533.78,431.25,o),
(478.69,391.9,c)
);
}
);
width = 778;
}
);
note = asciitilde;
unicode = 126;
},
